<svg width="17" height="17" viewBox="0 0 17 17" fill="none" xmlns="http://www.w3.org/2000/svg">
<path d="M16.2321 1.79637V14.3709C16.2321 15.363 15.4247 16.1673 14.4286 16.1673H11.0468C10.7978 16.1673 10.596 15.9662 10.596 15.7182V10.3291H12.7061C12.9204 10.3291 13.1051 10.179 13.148 9.96984L13.4726 8.35305C13.486 8.2878 13.4696 8.21987 13.4279 8.16791C13.386 8.11584 13.3232 8.08498 13.2562 8.08369H10.596V5.16455C10.596 5.04054 10.6969 4.94 10.8214 4.94H13.0759C13.3249 4.94 13.5268 4.73894 13.5268 4.49091V3.14365C13.5268 2.89561 13.3249 2.69455 13.0759 2.69455H10.8214C9.32729 2.69455 8.11604 3.90094 8.11604 5.38909V8.08369H7.00686C6.75784 8.08369 6.55597 8.28469 6.55597 8.53273V9.88005C6.55597 10.128 6.75784 10.3291 7.00686 10.3291H8.11604V15.7182C8.11604 15.9662 7.91418 16.1673 7.66517 16.1673H1.80357C0.807482 16.1673 0 15.363 0 14.3709V1.79637C0 0.804268 0.807482 0 1.80357 0H14.4286C15.4247 0 16.2321 0.804268 16.2321 1.79637Z" fill="#E8E8E8"/>
</svg>
