<svg width="17" height="17" viewBox="0 0 17 17" fill="none" xmlns="http://www.w3.org/2000/svg">
<path d="M11.7232 0H4.50892C2.01871 0 0 2.01065 0 4.49091V11.6764C0 14.1567 2.01871 16.1673 4.50892 16.1673H11.7232C14.2134 16.1673 16.2321 14.1567 16.2321 11.6764V4.49091C16.2321 2.01065 14.2134 0 11.7232 0ZM14.654 11.6764C14.6491 13.2864 13.3398 14.5905 11.7232 14.5954H4.50892C2.89234 14.5905 1.58308 13.2864 1.57813 11.6764V4.49091C1.58308 2.88079 2.89234 1.57676 4.50892 1.57183H11.7232C13.3398 1.57676 14.6491 2.88079 14.654 4.49091V11.6764ZM13.3013 3.81728C13.3013 4.31333 12.8976 4.71547 12.3996 4.71547C11.9015 4.71547 11.4978 4.31333 11.4978 3.81728C11.4978 3.32123 11.9015 2.9191 12.3996 2.9191C12.8976 2.9191 13.3013 3.32123 13.3013 3.81728ZM8.11602 4.04183C5.87488 4.04183 4.05804 5.8514 4.05804 8.08369C4.05804 10.3159 5.87488 12.1254 8.11602 12.1254C10.3572 12.1254 12.1741 10.3159 12.1741 8.08369C12.1765 7.01096 11.7498 5.98151 10.9882 5.223C10.2266 4.46449 9.19302 4.03944 8.11602 4.04183ZM8.11602 10.5537C6.74645 10.5537 5.63615 9.44784 5.63615 8.08369C5.63615 6.7195 6.74645 5.61364 8.11602 5.61364C9.48573 5.61364 10.5959 6.7195 10.5959 8.08369C10.5959 9.44784 9.48573 10.5537 8.11602 10.5537Z" fill="#E8E8E8"/>
</svg>
