<svg width="17" height="17" viewBox="0 0 17 17" fill="none" xmlns="http://www.w3.org/2000/svg">
<path d="M14.4286 0H1.80357C0.807482 0 0 0.832725 0 1.85994V14.8794C0 15.9067 0.807482 16.7394 1.80357 16.7394H14.4286C15.4247 16.7394 16.2321 15.9067 16.2321 14.8794V1.85994C16.2321 0.832725 15.4247 0 14.4286 0ZM4.95981 13.4845C4.95981 13.7413 4.75795 13.9495 4.50892 13.9495H3.15625C2.90723 13.9495 2.70536 13.7413 2.70536 13.4845V6.97474C2.70536 6.71794 2.90723 6.50976 3.15625 6.50976H4.50892C4.75795 6.50976 4.95981 6.71794 4.95981 6.97474V13.4845ZM3.83259 5.5798C3.08552 5.5798 2.47991 4.95526 2.47991 4.18485C2.47991 3.41444 3.08552 2.7899 3.83259 2.7899C4.57965 2.7899 5.18526 3.41444 5.18526 4.18485C5.18526 4.95526 4.57965 5.5798 3.83259 5.5798ZM13.5267 13.4845C13.5267 13.7413 13.3249 13.9495 13.0759 13.9495H11.7232C11.4742 13.9495 11.2723 13.7413 11.2723 13.4845V9.99712C11.2723 9.22676 10.6667 8.60222 9.91966 8.60222C9.17255 8.60222 8.56698 9.22676 8.56698 9.99712V13.4845C8.56698 13.7413 8.36512 13.9495 8.11602 13.9495H6.76339C6.51437 13.9495 6.31249 13.7413 6.31249 13.4845V6.97474C6.31249 6.71794 6.51437 6.50976 6.76339 6.50976H8.11602C8.36512 6.50976 8.56698 6.71794 8.56698 6.97474V7.53272C9.11545 6.67196 10.0793 6.19288 11.0739 6.28658C12.4966 6.46746 13.5561 7.72874 13.5267 9.20661V13.4845Z" fill="#E8E8E8"/>
</svg>
