<svg width="19" height="16" viewBox="0 0 19 16" fill="none" xmlns="http://www.w3.org/2000/svg">
<path d="M18.1535 2.24315C17.6843 2.86985 17.1173 3.41654 16.4743 3.86208C16.4743 4.02579 16.4743 4.1895 16.4743 4.3623C16.4795 7.33529 15.2938 10.186 13.1831 12.2754C11.0725 14.3648 8.21342 15.518 5.24685 15.4765C3.53182 15.4822 1.83874 15.0901 0.300244 14.3306C0.217298 14.2942 0.163793 14.2121 0.164108 14.1213V14.0213C0.164108 13.8907 0.269756 13.7848 0.400088 13.7848C2.08593 13.7291 3.71163 13.1438 5.04717 12.1114C3.52125 12.0806 2.14831 11.1752 1.51648 9.78298C1.48457 9.70693 1.4945 9.61974 1.54269 9.55292C1.5909 9.48598 1.67039 9.44908 1.75246 9.4556C2.21622 9.50229 2.68461 9.45898 3.13206 9.32825C1.44758 8.97804 0.181871 7.5773 0.000723926 5.86301C-0.00571107 5.78076 0.0310877 5.70111 0.0978227 5.6528C0.164558 5.6045 0.251588 5.59455 0.32748 5.62653C0.779516 5.82631 1.2675 5.93153 1.76154 5.93576C0.285529 4.96544 -0.352009 3.11985 0.20949 1.44278C0.26745 1.27981 0.406691 1.15943 0.57606 1.12586C0.745418 1.09229 0.919928 1.15048 1.03543 1.27906C3.02722 3.40229 5.76396 4.66753 8.66862 4.80797C8.59423 4.51061 8.55763 4.20502 8.55971 3.89845C8.58688 2.29101 9.57994 0.859074 11.0738 0.273005C12.5678 -0.313052 14.267 0.0627542 15.3761 1.2245C16.1321 1.08025 16.8629 0.82592 17.5453 0.469599C17.5952 0.438335 17.6587 0.438335 17.7086 0.469599C17.7399 0.519695 17.7399 0.583213 17.7086 0.633309C17.3781 1.39148 16.8197 2.02739 16.1112 2.45233C16.7316 2.38028 17.3411 2.2337 17.9265 2.01577C17.9758 1.98216 18.0406 1.98216 18.0899 2.01577C18.1312 2.03469 18.162 2.07088 18.1743 2.11469C18.1865 2.15849 18.1789 2.20549 18.1535 2.24315Z" fill="#E8E8E8"/>
</svg>
