<svg width="472" height="563" viewBox="0 0 472 563" fill="none" xmlns="http://www.w3.org/2000/svg">
<ellipse cx="179.216" cy="244.676" rx="179.216" ry="244.097" fill="#E8E8E8"/>
<g clip-path="url(#clip0_17_61)">
<path d="M447.631 229.923L332.974 229.923C330.795 229.923 328.705 229.058 327.164 227.517C325.623 225.976 324.757 223.886 324.757 221.706V138.238C324.757 136.059 325.622 133.97 327.162 132.43C328.703 130.89 330.792 130.025 332.97 130.025H447.635C449.813 130.025 451.902 130.89 453.443 132.43C454.983 133.97 455.848 136.059 455.848 138.238V221.706C455.848 223.886 454.982 225.976 453.441 227.517C451.9 229.058 449.81 229.923 447.631 229.923Z" fill="white"/>
<path d="M324.414 221.706V138.237C324.414 135.968 325.315 133.791 326.92 132.187C328.524 130.582 330.701 129.681 332.97 129.681H447.635C449.904 129.681 452.081 130.582 453.685 132.187C455.29 133.791 456.191 135.968 456.191 138.237V221.706C456.191 222.83 455.97 223.943 455.54 224.982C455.11 226.02 454.479 226.964 453.684 227.759C452.889 228.554 451.946 229.184 450.907 229.615C449.868 230.045 448.755 230.266 447.631 230.266H332.974C331.85 230.266 330.737 230.045 329.698 229.615C328.659 229.184 327.716 228.554 326.921 227.759C326.126 226.964 325.495 226.02 325.065 224.982C324.635 223.943 324.414 222.83 324.414 221.706ZM332.97 130.367C330.883 130.368 328.882 131.197 327.407 132.673C325.931 134.149 325.102 136.15 325.102 138.237V221.706C325.102 223.794 325.932 225.797 327.409 227.273C328.885 228.75 330.888 229.58 332.976 229.58H447.631C449.719 229.58 451.722 228.75 453.199 227.273C454.675 225.797 455.505 223.794 455.505 221.706V138.237C455.505 136.15 454.676 134.148 453.2 132.672C451.724 131.196 449.722 130.367 447.635 130.367H332.97Z" fill="#292A2E"/>
<path d="M324.757 138.237V145.191H455.847V138.237C455.847 136.058 454.982 133.969 453.441 132.429C451.901 130.889 449.812 130.023 447.634 130.023H332.97C331.892 130.023 330.824 130.236 329.827 130.649C328.831 131.061 327.925 131.666 327.163 132.429C326.4 133.192 325.795 134.097 325.382 135.094C324.97 136.09 324.757 137.158 324.757 138.237Z" fill="#292A2E"/>
<path d="M369.527 156.433H363.341C363.268 156.433 363.198 156.404 363.147 156.353C363.095 156.301 363.066 156.231 363.066 156.158C363.066 156.086 363.095 156.016 363.147 155.964C363.198 155.913 363.268 155.884 363.341 155.884H369.527C369.599 155.884 369.669 155.913 369.721 155.964C369.772 156.016 369.801 156.086 369.801 156.158C369.801 156.231 369.772 156.301 369.721 156.353C369.669 156.404 369.599 156.433 369.527 156.433Z" fill="#292A2E"/>
<path d="M358.88 156.433H356.539C356.466 156.433 356.397 156.404 356.345 156.353C356.294 156.301 356.265 156.231 356.265 156.158C356.265 156.086 356.294 156.016 356.345 155.964C356.397 155.913 356.466 155.884 356.539 155.884H358.88C358.953 155.884 359.023 155.913 359.074 155.964C359.126 156.016 359.155 156.086 359.155 156.158C359.155 156.231 359.126 156.301 359.074 156.353C359.023 156.404 358.953 156.433 358.88 156.433Z" fill="#367CFF"/>
<path d="M358.88 161.388H356.539C356.466 161.388 356.397 161.359 356.345 161.308C356.294 161.256 356.265 161.186 356.265 161.114C356.265 161.041 356.294 160.971 356.345 160.919C356.397 160.868 356.466 160.839 356.539 160.839H358.88C358.953 160.839 359.023 160.868 359.074 160.919C359.126 160.971 359.155 161.041 359.155 161.114C359.155 161.186 359.126 161.256 359.074 161.308C359.023 161.359 358.953 161.388 358.88 161.388Z" fill="#367CFF"/>
<path d="M358.88 166.343H356.539C356.466 166.343 356.397 166.314 356.345 166.262C356.294 166.211 356.265 166.141 356.265 166.068C356.265 165.995 356.294 165.925 356.345 165.874C356.397 165.822 356.466 165.793 356.539 165.793H358.88C358.953 165.793 359.023 165.822 359.074 165.874C359.126 165.925 359.155 165.995 359.155 166.068C359.155 166.141 359.126 166.211 359.074 166.262C359.023 166.314 358.953 166.343 358.88 166.343Z" fill="#367CFF"/>
<path d="M358.88 171.297H356.539C356.466 171.297 356.397 171.268 356.345 171.217C356.294 171.165 356.265 171.096 356.265 171.023C356.265 170.95 356.294 170.88 356.345 170.828C356.397 170.777 356.466 170.748 356.539 170.748H358.88C358.953 170.748 359.023 170.777 359.074 170.828C359.126 170.88 359.155 170.95 359.155 171.023C359.155 171.096 359.126 171.165 359.074 171.217C359.023 171.268 358.953 171.297 358.88 171.297Z" fill="#367CFF"/>
<path d="M358.88 176.252H356.539C356.466 176.252 356.397 176.223 356.345 176.172C356.294 176.12 356.265 176.051 356.265 175.978C356.265 175.905 356.294 175.835 356.345 175.784C356.397 175.732 356.466 175.703 356.539 175.703H358.88C358.953 175.703 359.023 175.732 359.074 175.784C359.126 175.835 359.155 175.905 359.155 175.978C359.155 176.051 359.126 176.12 359.074 176.172C359.023 176.223 358.953 176.252 358.88 176.252Z" fill="#367CFF"/>
<path d="M358.88 181.207H356.539C356.466 181.207 356.397 181.178 356.345 181.127C356.294 181.075 356.265 181.005 356.265 180.932C356.265 180.86 356.294 180.79 356.345 180.738C356.397 180.687 356.466 180.658 356.539 180.658H358.88C358.953 180.658 359.023 180.687 359.074 180.738C359.126 180.79 359.155 180.86 359.155 180.932C359.155 181.005 359.126 181.075 359.074 181.127C359.023 181.178 358.953 181.207 358.88 181.207Z" fill="#367CFF"/>
<path d="M358.88 186.162H356.539C356.466 186.162 356.397 186.133 356.345 186.081C356.294 186.03 356.265 185.96 356.265 185.887C356.265 185.814 356.294 185.744 356.345 185.693C356.397 185.641 356.466 185.612 356.539 185.612H358.88C358.953 185.612 359.023 185.641 359.074 185.693C359.126 185.744 359.155 185.814 359.155 185.887C359.155 185.96 359.126 186.03 359.074 186.081C359.023 186.133 358.953 186.162 358.88 186.162Z" fill="#367CFF"/>
<path d="M358.88 191.116H356.539C356.466 191.116 356.397 191.087 356.345 191.036C356.294 190.984 356.265 190.914 356.265 190.842C356.265 190.769 356.294 190.699 356.345 190.647C356.397 190.596 356.466 190.567 356.539 190.567H358.88C358.953 190.567 359.023 190.596 359.074 190.647C359.126 190.699 359.155 190.769 359.155 190.842C359.155 190.914 359.126 190.984 359.074 191.036C359.023 191.087 358.953 191.116 358.88 191.116Z" fill="#367CFF"/>
<path d="M358.88 196.071H356.539C356.466 196.071 356.397 196.042 356.345 195.99C356.294 195.939 356.265 195.869 356.265 195.796C356.265 195.723 356.294 195.653 356.345 195.602C356.397 195.55 356.466 195.521 356.539 195.521H358.88C358.953 195.521 359.023 195.55 359.074 195.602C359.126 195.653 359.155 195.723 359.155 195.796C359.155 195.869 359.126 195.939 359.074 195.99C359.023 196.042 358.953 196.071 358.88 196.071Z" fill="#367CFF"/>
<path d="M358.88 201.026H356.539C356.466 201.026 356.397 200.997 356.345 200.945C356.294 200.894 356.265 200.824 356.265 200.751C356.265 200.678 356.294 200.609 356.345 200.557C356.397 200.506 356.466 200.477 356.539 200.477H358.88C358.953 200.477 359.023 200.506 359.074 200.557C359.126 200.609 359.155 200.678 359.155 200.751C359.155 200.824 359.126 200.894 359.074 200.945C359.023 200.997 358.953 201.026 358.88 201.026Z" fill="#367CFF"/>
<path d="M358.88 205.981H356.539C356.466 205.981 356.397 205.952 356.345 205.901C356.294 205.849 356.265 205.779 356.265 205.706C356.265 205.633 356.294 205.564 356.345 205.512C356.397 205.461 356.466 205.432 356.539 205.432H358.88C358.953 205.432 359.023 205.461 359.074 205.512C359.126 205.564 359.155 205.633 359.155 205.706C359.155 205.779 359.126 205.849 359.074 205.901C359.023 205.952 358.953 205.981 358.88 205.981Z" fill="#367CFF"/>
<path d="M358.88 210.936H356.539C356.466 210.936 356.397 210.907 356.345 210.855C356.294 210.804 356.265 210.734 356.265 210.661C356.265 210.588 356.294 210.518 356.345 210.467C356.397 210.415 356.466 210.386 356.539 210.386H358.88C358.953 210.386 359.023 210.415 359.074 210.467C359.126 210.518 359.155 210.588 359.155 210.661C359.155 210.734 359.126 210.804 359.074 210.855C359.023 210.907 358.953 210.936 358.88 210.936Z" fill="#367CFF"/>
<path d="M358.88 215.89H356.539C356.466 215.89 356.397 215.861 356.345 215.81C356.294 215.758 356.265 215.688 356.265 215.615C356.265 215.543 356.294 215.473 356.345 215.421C356.397 215.37 356.466 215.341 356.539 215.341H358.88C358.953 215.341 359.023 215.37 359.074 215.421C359.126 215.473 359.155 215.543 359.155 215.615C359.155 215.688 359.126 215.758 359.074 215.81C359.023 215.861 358.953 215.89 358.88 215.89Z" fill="#367CFF"/>
<path d="M358.88 220.846H356.539C356.466 220.846 356.397 220.817 356.345 220.765C356.294 220.714 356.265 220.644 356.265 220.571C356.265 220.498 356.294 220.428 356.345 220.377C356.397 220.325 356.466 220.296 356.539 220.296H358.88C358.953 220.296 359.023 220.325 359.074 220.377C359.126 220.428 359.155 220.498 359.155 220.571C359.155 220.644 359.126 220.714 359.074 220.765C359.023 220.817 358.953 220.846 358.88 220.846Z" fill="#367CFF"/>
<path d="M374.47 161.388H368.834C368.761 161.388 368.691 161.359 368.64 161.308C368.588 161.256 368.559 161.186 368.559 161.114C368.559 161.041 368.588 160.971 368.64 160.919C368.691 160.868 368.761 160.839 368.834 160.839H374.47C374.543 160.839 374.613 160.868 374.665 160.919C374.716 160.971 374.745 161.041 374.745 161.114C374.745 161.186 374.716 161.256 374.665 161.308C374.613 161.359 374.543 161.388 374.47 161.388Z" fill="#292A2E"/>
<path d="M369.527 191.117H363.341C363.268 191.117 363.198 191.088 363.147 191.036C363.095 190.985 363.066 190.915 363.066 190.842C363.066 190.769 363.095 190.699 363.147 190.648C363.198 190.596 363.268 190.567 363.341 190.567H369.527C369.599 190.567 369.669 190.596 369.721 190.648C369.772 190.699 369.801 190.769 369.801 190.842C369.801 190.915 369.772 190.985 369.721 191.036C369.669 191.088 369.599 191.117 369.527 191.117Z" fill="#292A2E"/>
<path d="M374.47 196.071H368.834C368.761 196.071 368.691 196.042 368.64 195.991C368.588 195.939 368.559 195.869 368.559 195.797C368.559 195.724 368.588 195.654 368.64 195.602C368.691 195.551 368.761 195.522 368.834 195.522H374.47C374.543 195.522 374.613 195.551 374.665 195.602C374.716 195.654 374.745 195.724 374.745 195.797C374.745 195.869 374.716 195.939 374.665 195.991C374.613 196.042 374.543 196.071 374.47 196.071Z" fill="#292A2E"/>
<path d="M406.33 166.343H372.679C372.606 166.343 372.536 166.314 372.485 166.262C372.433 166.211 372.404 166.141 372.404 166.068C372.404 165.995 372.433 165.925 372.485 165.874C372.536 165.822 372.606 165.793 372.679 165.793H406.33C406.403 165.793 406.473 165.822 406.524 165.874C406.576 165.925 406.605 165.995 406.605 166.068C406.605 166.141 406.576 166.211 406.524 166.262C406.473 166.314 406.403 166.343 406.33 166.343Z" fill="#292A2E"/>
<path d="M436.041 166.343H412.278C412.205 166.343 412.135 166.314 412.083 166.262C412.032 166.211 412.003 166.141 412.003 166.068C412.003 165.995 412.032 165.925 412.083 165.874C412.135 165.822 412.205 165.793 412.278 165.793H436.041C436.113 165.793 436.183 165.822 436.235 165.874C436.286 165.925 436.315 165.995 436.315 166.068C436.315 166.141 436.286 166.211 436.235 166.262C436.183 166.314 436.113 166.343 436.041 166.343Z" fill="#0CBC8B"/>
<path d="M448.793 166.343H441.51C441.437 166.343 441.367 166.314 441.315 166.262C441.264 166.211 441.235 166.141 441.235 166.068C441.235 165.995 441.264 165.925 441.315 165.874C441.367 165.822 441.437 165.793 441.51 165.793H448.793C448.866 165.793 448.936 165.822 448.988 165.874C449.039 165.925 449.068 165.995 449.068 166.068C449.068 166.141 449.039 166.211 448.988 166.262C448.936 166.314 448.866 166.343 448.793 166.343Z" fill="#292A2E"/>
<path d="M422.809 176.252H372.679C372.606 176.252 372.536 176.223 372.485 176.172C372.433 176.12 372.404 176.051 372.404 175.978C372.404 175.905 372.433 175.835 372.485 175.784C372.536 175.732 372.606 175.703 372.679 175.703H422.809C422.882 175.703 422.952 175.732 423.004 175.784C423.055 175.835 423.084 175.905 423.084 175.978C423.084 176.051 423.055 176.12 423.004 176.172C422.952 176.223 422.882 176.252 422.809 176.252Z" fill="#292A2E"/>
<path d="M436.041 176.252H428.757C428.684 176.252 428.614 176.223 428.563 176.172C428.511 176.12 428.482 176.051 428.482 175.978C428.482 175.905 428.511 175.835 428.563 175.784C428.614 175.732 428.684 175.703 428.757 175.703H436.041C436.114 175.703 436.183 175.732 436.235 175.784C436.286 175.835 436.315 175.905 436.315 175.978C436.315 176.051 436.286 176.12 436.235 176.172C436.183 176.223 436.114 176.252 436.041 176.252Z" fill="#367CFF"/>
<path d="M378.865 171.298H372.679C372.606 171.298 372.536 171.269 372.485 171.217C372.433 171.166 372.404 171.096 372.404 171.023C372.404 170.95 372.433 170.88 372.485 170.829C372.536 170.777 372.606 170.749 372.679 170.749H378.865C378.938 170.749 379.008 170.777 379.059 170.829C379.111 170.88 379.14 170.95 379.14 171.023C379.14 171.096 379.111 171.166 379.059 171.217C379.008 171.269 378.938 171.298 378.865 171.298Z" fill="#0CBC8B"/>
<path d="M419.561 171.297H384.812C384.739 171.297 384.67 171.268 384.618 171.217C384.567 171.165 384.538 171.096 384.538 171.023C384.538 170.95 384.567 170.88 384.618 170.828C384.67 170.777 384.739 170.748 384.812 170.748H419.561C419.634 170.748 419.704 170.777 419.756 170.828C419.807 170.88 419.836 170.95 419.836 171.023C419.836 171.096 419.807 171.165 419.756 171.217C419.704 171.268 419.634 171.297 419.561 171.297Z" fill="#367CFF"/>
<path d="M448.841 171.297H426.175C426.102 171.297 426.032 171.268 425.981 171.217C425.929 171.165 425.9 171.096 425.9 171.023C425.9 170.95 425.929 170.88 425.981 170.828C426.032 170.777 426.102 170.748 426.175 170.748H448.84C448.913 170.748 448.983 170.777 449.034 170.828C449.086 170.88 449.115 170.95 449.115 171.023C449.115 171.096 449.086 171.165 449.034 171.217C448.983 171.268 448.913 171.297 448.84 171.297H448.841Z" fill="#292A2E"/>
<path d="M406.33 181.207H372.679C372.606 181.207 372.536 181.178 372.485 181.126C372.433 181.075 372.404 181.005 372.404 180.932C372.404 180.859 372.433 180.789 372.485 180.738C372.536 180.686 372.606 180.657 372.679 180.657H406.33C406.403 180.657 406.473 180.686 406.524 180.738C406.576 180.789 406.605 180.859 406.605 180.932C406.605 181.005 406.576 181.075 406.524 181.126C406.473 181.178 406.403 181.207 406.33 181.207Z" fill="#292A2E"/>
<path d="M425.054 181.207H412.278C412.205 181.207 412.135 181.178 412.083 181.126C412.032 181.075 412.003 181.005 412.003 180.932C412.003 180.859 412.032 180.789 412.083 180.738C412.135 180.686 412.205 180.657 412.278 180.657H425.054C425.127 180.657 425.197 180.686 425.249 180.738C425.3 180.789 425.329 180.859 425.329 180.932C425.329 181.005 425.3 181.075 425.249 181.126C425.197 181.178 425.127 181.207 425.054 181.207Z" fill="#0CBC8B"/>
<path d="M448.793 181.207H430.523C430.451 181.207 430.381 181.178 430.329 181.126C430.278 181.075 430.249 181.005 430.249 180.932C430.249 180.859 430.278 180.789 430.329 180.738C430.381 180.686 430.451 180.657 430.523 180.657H448.793C448.866 180.657 448.936 180.686 448.988 180.738C449.039 180.789 449.068 180.859 449.068 180.932C449.068 181.005 449.039 181.075 448.988 181.126C448.936 181.178 448.866 181.207 448.793 181.207Z" fill="#292A2E"/>
<path d="M378.865 186.162H372.679C372.606 186.162 372.536 186.133 372.485 186.081C372.433 186.03 372.404 185.96 372.404 185.887C372.404 185.814 372.433 185.744 372.485 185.693C372.536 185.641 372.606 185.612 372.679 185.612H378.865C378.938 185.612 379.008 185.641 379.059 185.693C379.111 185.744 379.139 185.814 379.139 185.887C379.139 185.96 379.111 186.03 379.059 186.081C379.008 186.133 378.938 186.162 378.865 186.162Z" fill="#367CFF"/>
<path d="M419.561 186.162H384.812C384.739 186.162 384.669 186.133 384.618 186.081C384.566 186.03 384.538 185.96 384.538 185.887C384.538 185.814 384.566 185.744 384.618 185.693C384.669 185.641 384.739 185.612 384.812 185.612H419.561C419.634 185.612 419.704 185.641 419.756 185.693C419.807 185.744 419.836 185.814 419.836 185.887C419.836 185.96 419.807 186.03 419.756 186.081C419.704 186.133 419.634 186.162 419.561 186.162Z" fill="#0CBC8B"/>
<path d="M405.232 205.981H371.58C371.508 205.981 371.438 205.952 371.386 205.901C371.335 205.849 371.306 205.779 371.306 205.706C371.306 205.633 371.335 205.564 371.386 205.512C371.438 205.461 371.508 205.432 371.58 205.432H405.232C405.304 205.432 405.374 205.461 405.426 205.512C405.477 205.564 405.506 205.633 405.506 205.706C405.506 205.779 405.477 205.849 405.426 205.901C405.374 205.952 405.304 205.981 405.232 205.981Z" fill="#292A2E"/>
<path d="M434.942 205.981H411.179C411.106 205.981 411.036 205.952 410.985 205.901C410.933 205.849 410.904 205.779 410.904 205.706C410.904 205.633 410.933 205.564 410.985 205.512C411.036 205.461 411.106 205.432 411.179 205.432H434.942C435.015 205.432 435.085 205.461 435.136 205.512C435.188 205.564 435.217 205.633 435.217 205.706C435.217 205.779 435.188 205.849 435.136 205.901C435.085 205.952 435.015 205.981 434.942 205.981Z" fill="#367CFF"/>
<path d="M388.752 201.026H371.58C371.508 201.026 371.438 200.997 371.386 200.946C371.335 200.894 371.306 200.825 371.306 200.752C371.306 200.679 371.335 200.609 371.386 200.557C371.438 200.506 371.508 200.477 371.58 200.477H388.752C388.825 200.477 388.895 200.506 388.947 200.557C388.998 200.609 389.027 200.679 389.027 200.752C389.027 200.825 388.998 200.894 388.947 200.946C388.895 200.997 388.825 201.026 388.752 201.026Z" fill="#0CBC8B"/>
<path d="M418.463 201.026H394.7C394.627 201.026 394.557 200.997 394.505 200.946C394.454 200.894 394.425 200.825 394.425 200.752C394.425 200.679 394.454 200.609 394.505 200.557C394.557 200.506 394.627 200.477 394.7 200.477H418.463C418.536 200.477 418.605 200.506 418.657 200.557C418.708 200.609 418.737 200.679 418.737 200.752C418.737 200.825 418.708 200.894 418.657 200.946C418.605 200.997 418.536 201.026 418.463 201.026Z" fill="#367CFF"/>
<path d="M447.743 201.026H425.076C425.004 201.026 424.934 200.997 424.882 200.946C424.831 200.894 424.802 200.825 424.802 200.752C424.802 200.679 424.831 200.609 424.882 200.557C424.934 200.506 425.004 200.477 425.076 200.477H447.741C447.814 200.477 447.884 200.506 447.936 200.557C447.987 200.609 448.016 200.679 448.016 200.752C448.016 200.825 447.987 200.894 447.936 200.946C447.884 200.997 447.814 201.026 447.741 201.026H447.743Z" fill="#292A2E"/>
<path d="M421.711 215.891H371.58C371.508 215.891 371.438 215.862 371.386 215.811C371.335 215.759 371.306 215.689 371.306 215.616C371.306 215.544 371.335 215.474 371.386 215.422C371.438 215.371 371.508 215.342 371.58 215.342H421.711C421.784 215.342 421.854 215.371 421.905 215.422C421.957 215.474 421.985 215.544 421.985 215.616C421.985 215.689 421.957 215.759 421.905 215.811C421.854 215.862 421.784 215.891 421.711 215.891Z" fill="#367CFF"/>
<path d="M434.942 215.891H427.658C427.585 215.891 427.516 215.862 427.464 215.811C427.412 215.759 427.384 215.689 427.384 215.616C427.384 215.544 427.412 215.474 427.464 215.422C427.516 215.371 427.585 215.342 427.658 215.342H434.942C435.015 215.342 435.085 215.371 435.136 215.422C435.188 215.474 435.217 215.544 435.217 215.616C435.217 215.689 435.188 215.759 435.136 215.811C435.085 215.862 435.015 215.891 434.942 215.891Z" fill="#292A2E"/>
<path d="M377.766 210.936H371.58C371.508 210.936 371.438 210.907 371.386 210.856C371.335 210.804 371.306 210.734 371.306 210.661C371.306 210.589 371.335 210.519 371.386 210.467C371.438 210.416 371.508 210.387 371.58 210.387H377.766C377.839 210.387 377.909 210.416 377.96 210.467C378.012 210.519 378.041 210.589 378.041 210.661C378.041 210.734 378.012 210.804 377.96 210.856C377.909 210.907 377.839 210.936 377.766 210.936Z" fill="#367CFF"/>
<path d="M418.463 210.936H383.714C383.641 210.936 383.571 210.907 383.519 210.856C383.468 210.804 383.439 210.734 383.439 210.661C383.439 210.589 383.468 210.519 383.519 210.467C383.571 210.416 383.641 210.387 383.714 210.387H418.463C418.536 210.387 418.605 210.416 418.657 210.467C418.708 210.519 418.737 210.589 418.737 210.661C418.737 210.734 418.708 210.804 418.657 210.856C418.605 210.907 418.536 210.936 418.463 210.936Z" fill="#292A2E"/>
<path d="M447.743 210.936H425.076C425.004 210.936 424.934 210.907 424.882 210.856C424.831 210.804 424.802 210.734 424.802 210.661C424.802 210.589 424.831 210.519 424.882 210.467C424.934 210.416 425.004 210.387 425.076 210.387H447.741C447.814 210.387 447.884 210.416 447.936 210.467C447.987 210.519 448.016 210.589 448.016 210.661C448.016 210.734 447.987 210.804 447.936 210.856C447.884 210.907 447.814 210.936 447.741 210.936H447.743Z" fill="#0CBC8B"/>
<path d="M405.232 220.846H371.58C371.508 220.846 371.438 220.817 371.386 220.765C371.335 220.714 371.306 220.644 371.306 220.571C371.306 220.498 371.335 220.428 371.386 220.377C371.438 220.325 371.508 220.296 371.58 220.296H405.232C405.304 220.296 405.374 220.325 405.426 220.377C405.477 220.428 405.506 220.498 405.506 220.571C405.506 220.644 405.477 220.714 405.426 220.765C405.374 220.817 405.304 220.846 405.232 220.846Z" fill="#0CBC8B"/>
<path d="M423.956 220.846H411.179C411.106 220.846 411.036 220.817 410.985 220.765C410.933 220.714 410.904 220.644 410.904 220.571C410.904 220.498 410.933 220.428 410.985 220.377C411.036 220.325 411.106 220.296 411.179 220.296H423.956C424.029 220.296 424.099 220.325 424.15 220.377C424.202 220.428 424.231 220.498 424.231 220.571C424.231 220.644 424.202 220.714 424.15 220.765C424.099 220.817 424.029 220.846 423.956 220.846Z" fill="#292A2E"/>
<path d="M447.695 220.846H429.425C429.352 220.846 429.282 220.817 429.231 220.765C429.179 220.714 429.15 220.644 429.15 220.571C429.15 220.498 429.179 220.428 429.231 220.377C429.282 220.325 429.352 220.296 429.425 220.296H447.695C447.768 220.296 447.837 220.325 447.889 220.377C447.941 220.428 447.969 220.498 447.969 220.571C447.969 220.644 447.941 220.714 447.889 220.765C447.837 220.817 447.768 220.846 447.695 220.846Z" fill="#367CFF"/>
<path d="M353.931 226.148C353.858 226.148 353.788 226.119 353.736 226.067C353.685 226.016 353.656 225.946 353.656 225.873V147.784C353.656 147.711 353.685 147.641 353.736 147.59C353.788 147.538 353.858 147.509 353.931 147.509C354.003 147.509 354.073 147.538 354.125 147.59C354.176 147.641 354.205 147.711 354.205 147.784V225.873C354.205 225.946 354.176 226.016 354.125 226.067C354.073 226.119 354.003 226.148 353.931 226.148Z" fill="#292A2E"/>
<path d="M445.916 142.564C448.35 142.564 450.323 140.591 450.323 138.157C450.323 135.723 448.35 133.75 445.916 133.75C443.482 133.75 441.51 135.723 441.51 138.157C441.51 140.591 443.482 142.564 445.916 142.564Z" fill="white"/>
<path d="M341.368 151.215H329.475C329.402 151.215 329.332 151.186 329.281 151.134C329.229 151.083 329.2 151.013 329.2 150.94C329.2 150.867 329.229 150.797 329.281 150.746C329.332 150.694 329.402 150.666 329.475 150.666H341.368C341.441 150.666 341.511 150.694 341.563 150.746C341.614 150.797 341.643 150.867 341.643 150.94C341.643 151.013 341.614 151.083 341.563 151.134C341.511 151.186 341.441 151.215 341.368 151.215Z" fill="#292A2E"/>
<path d="M337.785 156.632H329.475C329.402 156.632 329.332 156.603 329.281 156.551C329.229 156.5 329.2 156.43 329.2 156.357C329.2 156.284 329.229 156.214 329.281 156.163C329.332 156.111 329.402 156.083 329.475 156.083H337.785C337.858 156.083 337.928 156.111 337.98 156.163C338.031 156.214 338.06 156.284 338.06 156.357C338.06 156.43 338.031 156.5 337.98 156.551C337.928 156.603 337.858 156.632 337.785 156.632Z" fill="#292A2E"/>
<path d="M345.094 162.049H329.475C329.402 162.049 329.332 162.02 329.281 161.969C329.229 161.917 329.2 161.847 329.2 161.775C329.2 161.702 329.229 161.632 329.281 161.58C329.332 161.529 329.402 161.5 329.475 161.5H345.094C345.167 161.5 345.237 161.529 345.288 161.58C345.34 161.632 345.369 161.702 345.369 161.775C345.369 161.847 345.34 161.917 345.288 161.969C345.237 162.02 345.167 162.049 345.094 162.049Z" fill="#292A2E"/>
<path d="M348.008 167.467H334.968C334.895 167.467 334.825 167.438 334.774 167.386C334.722 167.335 334.693 167.265 334.693 167.192C334.693 167.119 334.722 167.049 334.774 166.998C334.825 166.946 334.895 166.917 334.968 166.917H348.008C348.081 166.917 348.151 166.946 348.203 166.998C348.254 167.049 348.283 167.119 348.283 167.192C348.283 167.265 348.254 167.335 348.203 167.386C348.151 167.438 348.081 167.467 348.008 167.467Z" fill="#292A2E"/>
<path d="M341.702 172.884H334.968C334.895 172.884 334.825 172.855 334.774 172.804C334.722 172.752 334.693 172.682 334.693 172.61C334.693 172.537 334.722 172.467 334.774 172.415C334.825 172.364 334.895 172.335 334.968 172.335H341.702C341.775 172.335 341.845 172.364 341.897 172.415C341.948 172.467 341.977 172.537 341.977 172.61C341.977 172.682 341.948 172.752 341.897 172.804C341.845 172.855 341.775 172.884 341.702 172.884Z" fill="#292A2E"/>
<path d="M346.862 178.302H334.968C334.895 178.302 334.825 178.273 334.774 178.221C334.722 178.17 334.693 178.1 334.693 178.027C334.693 177.954 334.722 177.884 334.774 177.833C334.825 177.781 334.895 177.752 334.968 177.752H346.862C346.934 177.752 347.004 177.781 347.056 177.833C347.107 177.884 347.136 177.954 347.136 178.027C347.136 178.1 347.107 178.17 347.056 178.221C347.004 178.273 346.934 178.302 346.862 178.302Z" fill="#292A2E"/>
<path d="M338.646 183.719H329.475C329.402 183.719 329.332 183.69 329.281 183.639C329.229 183.587 329.2 183.517 329.2 183.445C329.2 183.372 329.229 183.302 329.281 183.25C329.332 183.199 329.402 183.17 329.475 183.17H338.646C338.718 183.17 338.788 183.199 338.84 183.25C338.891 183.302 338.92 183.372 338.92 183.445C338.92 183.517 338.891 183.587 338.84 183.639C338.788 183.69 338.718 183.719 338.646 183.719Z" fill="#292A2E"/>
<path d="M335.493 189.136H329.475C329.402 189.136 329.332 189.107 329.281 189.055C329.229 189.004 329.2 188.934 329.2 188.861C329.2 188.788 329.229 188.718 329.281 188.667C329.332 188.615 329.402 188.586 329.475 188.586H335.493C335.566 188.586 335.636 188.615 335.687 188.667C335.739 188.718 335.768 188.788 335.768 188.861C335.768 188.934 335.739 189.004 335.687 189.055C335.636 189.107 335.566 189.136 335.493 189.136Z" fill="#292A2E"/>
<path d="M358.506 150.053V150.152L361.94 151.426C361.989 151.446 362.03 151.48 362.06 151.524C362.089 151.568 362.105 151.62 362.104 151.673V151.767C362.105 151.808 362.096 151.849 362.076 151.885C362.057 151.922 362.029 151.953 361.994 151.975C361.96 152 361.919 152.015 361.877 152.02C361.835 152.025 361.792 152.019 361.752 152.003L357.875 150.487C357.826 150.467 357.785 150.434 357.755 150.391C357.726 150.348 357.71 150.297 357.71 150.245V149.965C357.709 149.913 357.725 149.861 357.754 149.818C357.784 149.775 357.826 149.742 357.875 149.723L361.752 148.202C361.784 148.191 361.817 148.185 361.851 148.185C361.902 148.186 361.952 148.201 361.994 148.229C362.029 148.253 362.057 148.285 362.076 148.322C362.096 148.36 362.105 148.401 362.104 148.443V148.537C362.105 148.589 362.09 148.641 362.061 148.684C362.031 148.727 361.989 148.76 361.94 148.778L358.506 150.053Z" fill="#367CFF"/>
<path d="M365.312 147.081L363.257 153.37C363.241 153.423 363.208 153.469 363.163 153.501C363.119 153.534 363.065 153.551 363.01 153.552C362.97 153.552 362.931 153.543 362.895 153.525C362.86 153.507 362.83 153.48 362.807 153.447C362.782 153.415 362.766 153.377 362.758 153.337C362.75 153.297 362.752 153.256 362.763 153.216L364.817 146.932C364.835 146.879 364.869 146.832 364.914 146.799C364.959 146.765 365.014 146.747 365.07 146.746C365.11 146.745 365.149 146.755 365.184 146.773C365.22 146.791 365.25 146.818 365.273 146.85C365.298 146.882 365.314 146.92 365.321 146.961C365.328 147.001 365.324 147.042 365.312 147.081Z" fill="#367CFF"/>
<path d="M370.357 149.964V150.244C370.357 150.296 370.343 150.347 370.314 150.39C370.286 150.433 370.245 150.467 370.197 150.486L366.314 152.002C366.275 152.018 366.233 152.024 366.192 152.019C366.151 152.014 366.111 151.999 366.077 151.975C366.042 151.952 366.013 151.922 365.993 151.885C365.973 151.849 365.962 151.808 365.962 151.766V151.673C365.962 151.619 365.978 151.566 366.008 151.522C366.039 151.478 366.082 151.444 366.132 151.426L369.566 150.151V150.052L366.132 148.778C366.082 148.761 366.038 148.729 366.007 148.685C365.977 148.642 365.961 148.589 365.962 148.536V148.443C365.962 148.4 365.973 148.359 365.993 148.321C366.013 148.284 366.042 148.252 366.077 148.229C366.12 148.201 366.17 148.186 366.22 148.185C366.252 148.184 366.284 148.19 366.314 148.201L370.197 149.723C370.245 149.742 370.287 149.775 370.315 149.818C370.344 149.862 370.358 149.913 370.357 149.964Z" fill="#367CFF"/>
<path d="M292.693 99.4883H99.2131V292.968H292.693V99.4883Z" fill="#F4F4F4"/>
<path d="M99.213 99.4883H96.9955V292.968H99.213V99.4883Z" fill="#F4F4F4"/>
<path opacity="0.05" d="M99.213 99.4883H96.9955V292.968H99.213V99.4883Z" fill="#292A2E"/>
<path opacity="0.05" d="M146.084 232.812V182.191H187.551V211.601H251.781V263.674H279.08V292.969H251.781H246.522H108.521V232.812H146.084Z" fill="#292A2E"/>
<path opacity="0.34" d="M182.228 187.688H152.032V193.184H182.228V187.688Z" fill="#FFFFFA"/>
<path opacity="0.34" d="M182.228 199.077H152.032V204.573H182.228V199.077Z" fill="#FFFFFA"/>
<path opacity="0.34" d="M182.228 210.466H152.032V215.963H182.228V210.466Z" fill="#FFFFFA"/>
<path opacity="0.34" d="M119.44 238.147H113.875V243.643H119.44V238.147Z" fill="#FFFFFA"/>
<path opacity="0.34" d="M119.44 249.537H113.875V255.033H119.44V249.537Z" fill="#FFFFFA"/>
<path opacity="0.34" d="M119.44 260.926H113.875V266.423H119.44V260.926Z" fill="#FFFFFA"/>
<path opacity="0.34" d="M129.737 238.147H124.171V243.643H129.737V238.147Z" fill="#FFFFFA"/>
<path opacity="0.34" d="M129.737 249.537H124.171V255.033H129.737V249.537Z" fill="#FFFFFA"/>
<path opacity="0.34" d="M129.737 260.926H124.171V266.423H129.737V260.926Z" fill="#FFFFFA"/>
<path opacity="0.34" d="M139.755 238.147H134.189V243.643H139.755V238.147Z" fill="#FFFFFA"/>
<path opacity="0.34" d="M139.755 249.537H134.189V255.033H139.755V249.537Z" fill="#FFFFFA"/>
<path opacity="0.34" d="M139.755 260.926H134.189V266.423H139.755V260.926Z" fill="#FFFFFA"/>
<path d="M99.2131 195.143H138.145V99.4883H141.364V195.143H246.522V99.4883H249.742V195.143H292.693V198.363H249.742V292.968H246.522V198.363H141.364V292.968H138.145V198.363H99.2131V195.143Z" fill="white"/>
<path d="M300.401 292.735H91.5057V299.169H300.401V292.735Z" fill="#F4F4F4"/>
<path opacity="0.1" d="M300.401 292.735H91.5057V299.169H300.401V292.735Z" fill="#292A2E"/>
<path opacity="0.1" d="M91.5058 292.735H88.4896V299.169H91.5058V292.735Z" fill="#292A2E"/>
<path opacity="0.1" d="M91.5058 292.735H88.4896V299.169H91.5058V292.735Z" fill="#292A2E"/>
<path d="M96.9956 107.726L292.693 107.726V102.942L96.9956 102.942V107.726Z" fill="white"/>
<path d="M96.9956 116.663L292.693 116.663V111.879L96.9956 111.879V116.663Z" fill="white"/>
<path d="M96.9956 125.598L292.693 125.598V120.814L96.9956 120.814V125.598Z" fill="white"/>
<path d="M96.9956 134.533L292.693 134.533V129.749L96.9956 129.749V134.533Z" fill="white"/>
<path d="M96.9956 143.469L292.693 143.469V138.685L96.9956 138.685V143.469Z" fill="white"/>
<path d="M117.781 148.864H120.714V99.4886H117.781V148.864Z" fill="white"/>
<path d="M118.999 155.955C121.224 155.955 123.028 154.151 123.028 151.926C123.028 149.701 121.224 147.897 118.999 147.897C116.773 147.897 114.969 149.701 114.969 151.926C114.969 154.151 116.773 155.955 118.999 155.955Z" fill="white"/>
<path d="M98.7038 561.905L97.625 561.697L114.487 394.141L115.565 394.349L98.7038 561.905Z" fill="#494949"/>
<path d="M161.489 561.905L160.41 561.697L177.271 394.141L178.35 394.349L161.489 561.905Z" fill="#494949"/>
<path d="M300.27 561.905L301.349 561.697L284.488 394.141L283.409 394.349L300.27 561.905Z" fill="#494949"/>
<path d="M237.486 561.905L238.564 561.697L221.703 394.141L220.625 394.349L237.486 561.905Z" fill="#494949"/>
<path d="M215.125 320.4L214.036 320.545L223.886 394.319L224.975 394.174L215.125 320.4Z" fill="#494949"/>
<path d="M102.064 320.399L100.975 320.544L110.825 394.318L111.914 394.173L102.064 320.399Z" fill="#494949"/>
<path d="M224.88 388.842H114.293C111.31 388.842 108.891 391.261 108.891 394.245V394.245C108.891 397.229 111.31 399.648 114.293 399.648H224.88C227.864 399.648 230.282 397.229 230.282 394.245V394.245C230.282 391.261 227.864 388.842 224.88 388.842Z" fill="#292A2E"/>
<path opacity="0.8" d="M224.88 388.842H114.293C111.31 388.842 108.891 391.261 108.891 394.245V394.245C108.891 397.229 111.31 399.648 114.293 399.648H224.88C227.864 399.648 230.282 397.229 230.282 394.245V394.245C230.282 391.261 227.864 388.842 224.88 388.842Z" fill="white"/>
<path d="M224.88 400.197H114.294C113.512 400.197 112.738 400.043 112.016 399.743C111.294 399.444 110.638 399.006 110.085 398.453C109.533 397.901 109.094 397.244 108.795 396.522C108.496 395.8 108.342 395.026 108.342 394.245C108.342 393.463 108.496 392.689 108.795 391.967C109.094 391.245 109.533 390.589 110.085 390.036C110.638 389.484 111.294 389.045 112.016 388.746C112.738 388.447 113.512 388.293 114.294 388.293H224.88C225.662 388.293 226.436 388.447 227.158 388.746C227.88 389.045 228.536 389.484 229.089 390.036C229.641 390.589 230.08 391.245 230.379 391.967C230.678 392.689 230.832 393.463 230.832 394.245C230.832 395.026 230.678 395.8 230.379 396.522C230.08 397.244 229.641 397.901 229.089 398.453C228.536 399.006 227.88 399.444 227.158 399.743C226.436 400.043 225.662 400.197 224.88 400.197ZM114.294 389.392C113.657 389.392 113.025 389.517 112.437 389.761C111.848 390.005 111.313 390.362 110.862 390.813C110.412 391.264 110.054 391.799 109.81 392.388C109.566 392.976 109.441 393.607 109.441 394.245C109.441 394.882 109.566 395.513 109.81 396.102C110.054 396.691 110.412 397.226 110.862 397.676C111.313 398.127 111.848 398.485 112.437 398.728C113.025 398.972 113.657 399.098 114.294 399.098H224.88C225.517 399.098 226.148 398.972 226.737 398.728C227.326 398.485 227.861 398.127 228.312 397.676C228.762 397.226 229.12 396.691 229.364 396.102C229.608 395.513 229.733 394.882 229.733 394.245C229.733 393.607 229.608 392.976 229.364 392.388C229.12 391.799 228.762 391.264 228.312 390.813C227.861 390.362 227.326 390.005 226.737 389.761C226.148 389.517 225.517 389.392 224.88 389.392H114.294Z" fill="#292A2E"/>
<path d="M285.576 388.842H174.99C172.006 388.842 169.587 391.261 169.587 394.245V394.245C169.587 397.229 172.006 399.648 174.99 399.648H285.576C288.56 399.648 290.979 397.229 290.979 394.245V394.245C290.979 391.261 288.56 388.842 285.576 388.842Z" fill="white"/>
<path d="M285.576 400.197H174.99C174.208 400.197 173.434 400.043 172.712 399.743C171.99 399.444 171.334 399.006 170.781 398.453C170.228 397.901 169.79 397.244 169.491 396.522C169.192 395.8 169.038 395.026 169.038 394.245C169.038 393.463 169.192 392.689 169.491 391.967C169.79 391.245 170.228 390.589 170.781 390.036C171.334 389.484 171.99 389.045 172.712 388.746C173.434 388.447 174.208 388.293 174.99 388.293H285.576C286.358 388.293 287.132 388.447 287.854 388.746C288.576 389.045 289.232 389.484 289.785 390.036C290.337 390.589 290.776 391.245 291.075 391.967C291.374 392.689 291.528 393.463 291.528 394.245C291.528 395.026 291.374 395.8 291.075 396.522C290.776 397.244 290.337 397.901 289.785 398.453C289.232 399.006 288.576 399.444 287.854 399.743C287.132 400.043 286.358 400.197 285.576 400.197ZM174.99 389.392C174.352 389.392 173.721 389.517 173.132 389.761C172.544 390.005 172.009 390.362 171.558 390.813C171.107 391.264 170.75 391.799 170.506 392.388C170.262 392.976 170.136 393.607 170.136 394.245C170.136 394.882 170.262 395.513 170.506 396.102C170.75 396.691 171.107 397.226 171.558 397.676C172.009 398.127 172.544 398.485 173.132 398.728C173.721 398.972 174.352 399.098 174.99 399.098H285.576C286.214 399.098 286.845 398.972 287.433 398.728C288.022 398.485 288.557 398.127 289.008 397.676C289.459 397.226 289.816 396.691 290.06 396.102C290.304 395.513 290.429 394.882 290.429 394.245C290.429 393.607 290.304 392.976 290.06 392.388C289.816 391.799 289.459 391.264 289.008 390.813C288.557 390.362 288.022 390.005 287.433 389.761C286.845 389.517 286.214 389.392 285.576 389.392H174.99Z" fill="#292A2E"/>
<path d="M209.066 320.471H101.816C100.062 320.471 98.3686 319.833 97.051 318.676C95.7335 317.519 94.882 315.922 94.6555 314.183L87.5612 259.703C87.4286 258.685 87.5148 257.65 87.814 256.667C88.1132 255.685 88.6186 254.777 89.2964 254.006C89.9742 253.234 90.8088 252.616 91.7445 252.193C92.6802 251.769 93.6954 251.55 94.7225 251.55H201.972C203.726 251.55 205.419 252.188 206.737 253.345C208.054 254.502 208.906 256.099 209.132 257.838L216.226 312.319C216.359 313.337 216.273 314.372 215.974 315.354C215.675 316.337 215.169 317.244 214.492 318.016C213.814 318.787 212.98 319.405 212.044 319.829C211.109 320.252 210.093 320.471 209.066 320.471Z" fill="#292A2E"/>
<path opacity="0.8" d="M209.066 320.471H101.816C100.062 320.471 98.3686 319.833 97.051 318.676C95.7335 317.519 94.882 315.922 94.6555 314.183L87.5612 259.703C87.4286 258.685 87.5148 257.65 87.814 256.667C88.1132 255.685 88.6186 254.777 89.2964 254.006C89.9742 253.234 90.8088 252.616 91.7445 252.193C92.6802 251.769 93.6954 251.55 94.7225 251.55H201.972C203.726 251.55 205.419 252.188 206.737 253.345C208.054 254.502 208.906 256.099 209.132 257.838L216.226 312.319C216.359 313.337 216.273 314.372 215.974 315.354C215.675 316.337 215.169 317.244 214.492 318.016C213.814 318.787 212.98 319.405 212.044 319.829C211.109 320.252 210.093 320.471 209.066 320.471Z" fill="white"/>
<path d="M209.066 321.02H101.816C99.9299 321.016 98.1096 320.328 96.6927 319.083C95.2757 317.839 94.3583 316.123 94.1106 314.253L87.0168 259.774C86.874 258.678 86.9666 257.564 87.2885 256.507C87.6104 255.449 88.1542 254.473 88.8835 253.642C89.6128 252.812 90.5109 252.147 91.5178 251.691C92.5247 251.235 93.6173 251 94.7225 251H201.972C203.858 251.004 205.678 251.692 207.095 252.937C208.512 254.181 209.429 255.897 209.677 257.767L216.771 312.247C216.914 313.343 216.821 314.457 216.499 315.514C216.177 316.571 215.634 317.547 214.905 318.378C214.175 319.208 213.277 319.873 212.271 320.329C211.264 320.785 210.172 321.02 209.066 321.02ZM94.7225 252.099C93.7737 252.099 92.8358 252.301 91.9714 252.692C91.107 253.084 90.3361 253.655 89.71 254.368C89.0839 255.081 88.6171 255.919 88.3407 256.827C88.0643 257.734 87.9847 258.69 88.1072 259.631L95.2015 314.112C95.414 315.717 96.2016 317.19 97.4182 318.259C98.6348 319.327 100.198 319.918 101.817 319.922H209.066C210.015 319.921 210.953 319.719 211.817 319.327C212.681 318.936 213.452 318.365 214.078 317.652C214.704 316.939 215.17 316.101 215.447 315.193C215.723 314.286 215.803 313.33 215.68 312.389L208.587 257.909C208.375 256.304 207.587 254.831 206.371 253.762C205.154 252.694 203.591 252.103 201.972 252.099L94.7225 252.099Z" fill="#292A2E"/>
<path d="M215.131 320.471H107.88C106.127 320.471 104.433 319.833 103.116 318.675C101.798 317.518 100.947 315.921 100.72 314.182L93.6239 259.703C93.4913 258.684 93.5775 257.649 93.8766 256.667C94.1758 255.685 94.6811 254.777 95.3588 254.006C96.0364 253.234 96.8709 252.616 97.8065 252.192C98.742 251.769 99.7572 251.55 100.784 251.55H208.037C209.791 251.55 211.484 252.188 212.802 253.345C214.119 254.502 214.97 256.099 215.197 257.838L222.291 312.318C222.424 313.336 222.337 314.371 222.038 315.354C221.739 316.336 221.234 317.244 220.556 318.015C219.879 318.787 219.044 319.405 218.109 319.828C217.173 320.252 216.158 320.471 215.131 320.471Z" fill="white"/>
<path d="M215.131 321.02H107.88C105.994 321.016 104.174 320.327 102.757 319.083C101.34 317.838 100.423 316.122 100.175 314.253L93.0811 259.773C92.9384 258.677 93.0312 257.564 93.3531 256.506C93.675 255.449 94.2188 254.473 94.948 253.642C95.6772 252.812 96.5752 252.147 97.582 251.691C98.5887 251.235 99.6811 251 100.786 251H208.036C209.922 251.004 211.743 251.692 213.159 252.936C214.576 254.181 215.494 255.897 215.742 257.766L222.836 312.247C222.978 313.343 222.886 314.456 222.564 315.513C222.242 316.57 221.698 317.547 220.969 318.377C220.24 319.207 219.342 319.873 218.335 320.328C217.328 320.784 216.236 321.02 215.131 321.02ZM100.786 252.098C99.8376 252.099 98.8999 252.301 98.0358 252.693C97.1717 253.084 96.401 253.656 95.7752 254.368C95.1493 255.081 94.6827 255.92 94.4064 256.827C94.1302 257.735 94.0506 258.691 94.1731 259.631L101.265 314.111C101.477 315.716 102.265 317.19 103.482 318.258C104.698 319.327 106.261 319.917 107.88 319.921H215.131C216.08 319.921 217.017 319.719 217.882 319.327C218.746 318.936 219.517 318.365 220.143 317.652C220.769 316.939 221.236 316.101 221.513 315.193C221.789 314.286 221.869 313.329 221.746 312.389L214.652 257.909C214.439 256.304 213.652 254.83 212.435 253.762C211.218 252.693 209.656 252.102 208.036 252.099L100.786 252.098Z" fill="#292A2E"/>
<path d="M298.5 332.91L297.407 333.02L320.564 562.273L321.657 562.163L298.5 332.91Z" fill="#494949"/>
<path d="M203.573 167.912C203.573 167.912 210.7 162.532 212.466 150.15C213.833 140.563 204.989 146.774 204.989 146.774C204.989 146.774 205.906 139.861 200.869 140.547C195.832 141.233 193.014 148.495 193.014 148.495" fill="#0C0C0C"/>
<path d="M174.838 141.356C174.838 141.356 149.847 144.038 158.882 177.899L161.093 178.047L165.582 178.349" fill="#0C0C0C"/>
<path d="M199.387 213.265C199.277 213.25 198.058 233.479 174.555 231.718C158.285 230.499 152.483 213.236 152.11 213.236C153.865 212.864 156.032 212.297 156.894 212.103C158.772 211.668 160.472 210.67 161.769 209.244C163.066 207.818 163.898 206.031 164.155 204.121C164.631 201.254 163.825 186.583 164.072 183.681L189.047 189.256C188.699 195.384 186.256 209.589 194.815 212.103C196.242 212.519 197.776 212.902 199.387 213.265Z" fill="#E98862"/>
<path opacity="0.52" d="M189.398 206.298C189.007 205.037 188.755 203.737 188.647 202.421C188.373 199.419 188.428 196.396 188.812 193.405C183.736 192.72 178.953 190.625 175.008 187.358C174.545 189.071 171.994 196.554 172.701 198.182C174.033 201.259 180.305 206.298 189.398 206.298Z" fill="#0C0C0C"/>
<path d="M184.244 202.294C174.39 201.41 162.597 195.184 162.427 181.809L162.274 169.741C162.104 156.366 168.991 145.435 181.584 145.274C194.177 145.114 203.728 155.837 203.897 169.212L203.966 174.555C203.957 176.389 203.823 178.222 203.565 180.038C202.919 184.845 201.917 192.152 198.656 197.095C195.575 201.762 190.538 202.858 184.244 202.294Z" fill="#E98862"/>
<path d="M188.815 190.069C190.848 190.161 192.875 189.774 194.731 188.939C194.77 188.923 194.804 188.899 194.833 188.869C194.863 188.84 194.886 188.804 194.901 188.766C194.917 188.727 194.925 188.685 194.924 188.644C194.924 188.602 194.915 188.561 194.899 188.522C194.882 188.484 194.859 188.449 194.829 188.42C194.799 188.391 194.764 188.368 194.725 188.352C194.686 188.337 194.645 188.329 194.603 188.329C194.561 188.33 194.52 188.339 194.482 188.355C190.483 190.061 186.851 189.811 183.981 187.633C183.923 187.587 183.862 187.544 183.8 187.505C183.728 187.471 183.646 187.466 183.57 187.49C183.494 187.514 183.43 187.566 183.39 187.635C183.351 187.704 183.338 187.785 183.356 187.862C183.373 187.94 183.419 188.008 183.484 188.054C183.507 188.068 183.544 188.097 183.594 188.137C185.103 189.287 186.921 189.959 188.815 190.069Z" fill="#0C0C0C"/>
<path d="M188.72 193.081C189.087 193.104 189.456 193.095 189.822 193.055C189.906 193.046 189.983 193.004 190.036 192.938C190.088 192.873 190.113 192.789 190.104 192.705C190.095 192.622 190.054 192.545 189.988 192.492C189.923 192.439 189.839 192.414 189.755 192.423C187.554 192.657 186.504 191.648 186.459 191.605C186.4 191.545 186.319 191.512 186.235 191.512C186.15 191.512 186.069 191.545 186.01 191.605C185.95 191.664 185.917 191.745 185.916 191.829C185.916 191.913 185.95 191.994 186.009 192.054C186.767 192.699 187.725 193.062 188.72 193.081Z" fill="#0C0C0C"/>
<path d="M199.739 177.127C200.595 177.127 201.29 176.432 201.29 175.576C201.29 174.719 200.595 174.024 199.739 174.024C198.882 174.024 198.187 174.719 198.187 175.576C198.187 176.432 198.882 177.127 199.739 177.127Z" fill="#0C0C0C"/>
<path d="M184.584 176.176C185.441 176.176 186.136 175.481 186.136 174.624C186.136 173.768 185.441 173.073 184.584 173.073C183.728 173.073 183.033 173.768 183.033 174.624C183.033 175.481 183.728 176.176 184.584 176.176Z" fill="#0C0C0C"/>
<path d="M163.261 185.874C159.434 185.923 156.28 181.868 156.23 178.041C156.18 174.214 159.257 172.064 163.084 172.016L165.088 174.555L166.551 185.832L163.261 185.874Z" fill="#E98862"/>
<path d="M167.066 179.725C167.066 179.725 168.359 160.8 174.097 159.631C177.92 158.852 187.188 164.274 195.773 162.636C199.529 161.922 203.094 162.85 203.457 164.624C203.6 165.326 205.94 155.231 200.059 147.571C195.376 141.471 180.051 139.749 173.08 141.748C153.775 147.287 162.294 172.849 162.294 172.849L163.155 179.373L167.066 179.725Z" fill="#0C0C0C"/>
<path d="M191.126 185.602H191.151C192.384 185.589 194.451 185.431 194.443 184.508C194.434 183.744 192.259 175.513 192.01 174.577C191.987 174.5 191.934 174.434 191.863 174.395C191.792 174.355 191.708 174.345 191.629 174.365C191.551 174.386 191.483 174.437 191.441 174.506C191.399 174.576 191.386 174.659 191.403 174.738C192.37 178.383 193.809 183.995 193.815 184.516C193.696 184.736 192.422 184.962 191.145 184.975C191.064 184.977 190.987 185.009 190.93 185.066C190.873 185.123 190.84 185.199 190.837 185.28C190.835 185.36 190.864 185.439 190.917 185.499C190.971 185.559 191.046 185.596 191.126 185.602V185.602Z" fill="#0C0C0C"/>
<path d="M195.336 167.163C196.632 166.806 198 166.806 199.296 167.163C199.933 167.334 200.541 167.6 201.098 167.952C201.649 168.296 202.155 168.709 202.603 169.18C202.689 169.263 202.738 169.377 202.742 169.496C202.745 169.616 202.701 169.731 202.62 169.819C202.539 169.907 202.426 169.959 202.307 169.965C202.188 169.971 202.071 169.93 201.981 169.85L201.953 169.826C201.539 169.442 201.077 169.112 200.58 168.843C200.092 168.576 199.567 168.384 199.022 168.274C197.949 168.049 196.835 168.112 195.793 168.455L195.75 168.47C195.578 168.531 195.389 168.521 195.224 168.443C195.06 168.364 194.933 168.223 194.873 168.052C194.812 167.88 194.822 167.691 194.9 167.526C194.979 167.362 195.12 167.235 195.291 167.175L195.336 167.163Z" fill="#0C0C0C"/>
<path d="M186.158 167.943C185.172 167.463 184.077 167.253 182.983 167.334C182.428 167.37 181.882 167.49 181.363 167.689C180.835 167.89 180.334 168.156 179.873 168.48L179.843 168.5C179.744 168.564 179.624 168.587 179.509 168.564C179.393 168.542 179.291 168.476 179.223 168.38C179.155 168.283 179.127 168.165 179.144 168.048C179.161 167.932 179.222 167.827 179.315 167.754C179.821 167.347 180.378 167.005 180.97 166.737C181.57 166.463 182.207 166.281 182.861 166.195C184.193 166.014 185.549 166.196 186.787 166.722C186.954 166.794 187.086 166.931 187.153 167.101C187.22 167.271 187.216 167.46 187.144 167.628C187.071 167.795 186.934 167.927 186.764 167.994C186.594 168.061 186.405 168.058 186.237 167.985L186.199 167.967L186.158 167.943Z" fill="#0C0C0C"/>
<path d="M193.491 154.135C196.324 153.544 197.914 149.684 197.043 145.514C196.172 141.345 193.169 138.445 190.337 139.037C187.504 139.629 185.914 143.488 186.785 147.658C187.656 151.827 190.658 154.727 193.491 154.135Z" fill="#0C0C0C"/>
<path d="M351.481 533.299C351.481 533.299 354.426 548.566 368.72 549.417C383.014 550.267 379.915 561.655 379.915 561.655H325.29V534.363L351.481 533.299Z" fill="#367CFF"/>
<path d="M247.558 523.659C247.558 523.659 243.462 538.658 255.913 545.731C268.364 552.804 260.556 561.655 260.556 561.655L211.54 537.54L223.587 513.051L247.558 523.659Z" fill="#367CFF"/>
<path d="M217.2 519.423L258.534 389.023H183.609C168.558 389.023 162.284 376.259 162.284 361.21C162.284 346.16 177.08 332.966 192.13 332.966H293.252C302.431 332.966 312.724 338.58 317.762 346.254C322.801 353.928 321.438 365.819 317.788 374.242L251.597 535.006" fill="#262626"/>
<path opacity="0.8" d="M217.2 519.423L258.534 389.023H183.609C168.558 389.023 162.284 376.259 162.284 361.21C162.284 346.16 177.08 332.966 192.13 332.966H293.252C302.431 332.966 312.724 338.58 317.762 346.254C322.801 353.928 321.438 365.819 317.788 374.242L251.597 535.006" fill="#0A0A0A"/>
<path d="M322.148 547.477L253.033 389.023L162.282 389.017C141.018 387.35 131.28 375.696 131.589 360.649C131.895 345.793 139.417 331.12 154.206 331.12H276.522C287.464 331.344 296.073 343.437 300.132 353.6L357.59 537.777" fill="#262626"/>
<path d="M125.4 331.301C125.4 331.301 121.369 357.583 127.758 372.195C135.733 390.438 165.631 389.016 165.631 389.016L163.946 331.119L125.4 331.301Z" fill="#262626"/>
<path d="M302.732 330.784L238.628 317.501C235.957 316.947 233.468 315.729 231.393 313.958C229.317 312.188 227.722 309.923 226.754 307.372L201.541 240.932C200.773 238.938 200.407 236.812 200.463 234.676C200.52 232.54 200.997 230.436 201.869 228.486C202.741 226.535 203.99 224.776 205.543 223.309C207.097 221.842 208.925 220.697 210.923 219.939C212.921 219.181 215.048 218.825 217.184 218.891C219.32 218.958 221.421 219.446 223.368 220.327C225.314 221.208 227.068 222.465 228.527 224.026C229.986 225.587 231.123 227.421 231.871 229.422L253.927 287.539L309.316 299.016C309.316 299.016 303.844 331.014 302.732 330.784Z" fill="#367CFF"/>
<path d="M228.589 257.804C227.849 266.502 222.601 320.761 221.887 331.473H125.442C124.888 321.811 123.089 280.791 120.987 261.897C118.982 243.868 118.254 233.579 120.564 227.977C124.639 218.095 134.836 214.539 143.619 213.35C148.982 212.624 157.049 212.104 157.049 212.104C157.049 212.104 157.732 225.92 174.018 226.689C196.187 227.733 194.707 212.104 194.817 212.104C198.408 212.104 217.958 214.715 222.846 217.901C229.751 222.402 231.791 228.534 231.872 234.169C231.965 240.657 229.428 247.941 228.589 257.804Z" fill="#367CFF"/>
<path d="M224.799 302.14H224.776C224.74 302.137 224.705 302.127 224.672 302.11C224.64 302.094 224.612 302.071 224.589 302.043C224.565 302.016 224.548 301.984 224.537 301.95C224.526 301.915 224.522 301.879 224.525 301.843L227.028 271.766C227.03 271.73 227.04 271.695 227.056 271.662C227.072 271.63 227.095 271.601 227.122 271.577C227.15 271.554 227.182 271.536 227.217 271.525C227.252 271.515 227.288 271.511 227.324 271.515C227.36 271.518 227.395 271.528 227.427 271.545C227.46 271.561 227.488 271.584 227.511 271.612C227.535 271.639 227.552 271.671 227.563 271.705C227.574 271.74 227.578 271.776 227.575 271.812L225.072 301.889C225.066 301.957 225.034 302.021 224.984 302.067C224.933 302.114 224.867 302.14 224.799 302.14Z" fill="#0C0C0C"/>
<path d="M270.731 320.191L291.893 255.14C292.265 253.997 292.989 253.001 293.961 252.294C294.934 251.588 296.105 251.207 297.307 251.208H389.015C389.914 251.207 390.8 251.42 391.601 251.828C392.402 252.236 393.094 252.828 393.623 253.555C394.151 254.282 394.499 255.124 394.64 256.012C394.78 256.9 394.708 257.808 394.43 258.663L367.775 323.716C367.404 324.859 366.679 325.855 365.707 326.562C364.734 327.268 363.563 327.649 362.361 327.649H276.146C275.247 327.649 274.361 327.436 273.56 327.028C272.759 326.62 272.066 326.028 271.538 325.3C271.009 324.573 270.661 323.731 270.521 322.843C270.381 321.955 270.453 321.046 270.731 320.191Z" fill="#292A2E"/>
<path d="M270.731 320.191L291.893 255.14C292.265 253.997 292.989 253.001 293.961 252.294C294.934 251.588 296.105 251.207 297.307 251.208H389.015C389.914 251.207 390.8 251.42 391.601 251.828C392.402 252.236 393.094 252.828 393.623 253.555C394.151 254.282 394.499 255.124 394.64 256.012C394.78 256.9 394.708 257.808 394.43 258.663L367.775 323.716C367.404 324.859 366.679 325.855 365.707 326.562C364.734 327.268 363.563 327.649 362.361 327.649H276.146C275.247 327.649 274.361 327.436 273.56 327.028C272.759 326.62 272.066 326.028 271.538 325.3C271.009 324.573 270.661 323.731 270.521 322.843C270.381 321.955 270.453 321.046 270.731 320.191Z" fill="#292A2E"/>
<path d="M287.994 322.372H230.281C228.843 322.372 227.678 323.537 227.678 324.975V325.042C227.678 326.48 228.843 327.646 230.281 327.646H287.994C289.432 327.646 290.598 326.48 290.598 325.042V324.975C290.598 323.537 289.432 322.372 287.994 322.372Z" fill="#292A2E"/>
<path d="M287.994 322.372H230.281C228.843 322.372 227.678 323.537 227.678 324.975V325.042C227.678 326.48 228.843 327.646 230.281 327.646H287.994C289.432 327.646 290.598 326.48 290.598 325.042V324.975C290.598 323.537 289.432 322.372 287.994 322.372Z" fill="#292A2E"/>
<path d="M329.834 301.643C334.828 301.643 338.876 297.595 338.876 292.601C338.876 287.607 334.828 283.559 329.834 283.559C324.84 283.559 320.792 287.607 320.792 292.601C320.792 297.595 324.84 301.643 329.834 301.643Z" fill="white"/>
<path d="M265.907 304.952L251.504 299.904L253.571 299.761C254.238 299.702 254.857 299.391 255.304 298.893C255.751 298.394 255.991 297.745 255.977 297.076C255.958 296.731 255.869 296.393 255.715 296.084C255.561 295.774 255.346 295.5 255.082 295.276C254.819 295.053 254.512 294.885 254.182 294.784C253.852 294.683 253.504 294.65 253.161 294.688L227.678 297.396L228.337 305.585C228.542 308.129 229.503 310.553 231.095 312.547C232.688 314.541 234.839 316.014 237.274 316.777L248.31 320.214C248.88 320.404 249.498 320.391 250.059 320.178C250.62 319.964 251.091 319.563 251.391 319.043C251.651 318.567 251.753 318.02 251.681 317.483C251.609 316.945 251.367 316.444 250.991 316.054C251.015 316.037 251.036 316.014 251.051 315.989C251.067 315.963 251.077 315.935 251.081 315.905C251.085 315.876 251.083 315.845 251.076 315.817C251.068 315.788 251.054 315.761 251.035 315.737L253.068 316.375C253.702 316.588 254.394 316.553 255.003 316.275C255.612 315.998 256.093 315.5 256.348 314.881C256.557 314.32 256.562 313.704 256.361 313.14C256.16 312.576 255.766 312.101 255.25 311.799C255.273 311.786 255.295 311.769 255.312 311.748L256.148 312.01C256.718 312.2 257.336 312.187 257.898 311.974C258.459 311.76 258.93 311.359 259.229 310.838C259.545 310.261 259.626 309.584 259.454 308.95C259.281 308.315 258.87 307.771 258.306 307.432C258.311 307.416 258.314 307.398 258.314 307.381L264.313 309.483C264.611 309.591 264.927 309.639 265.244 309.623C265.561 309.608 265.872 309.53 266.158 309.394C266.445 309.258 266.701 309.067 266.913 308.831C267.125 308.595 267.289 308.32 267.393 308.02C267.498 307.721 267.543 307.404 267.524 307.087C267.506 306.771 267.425 306.461 267.286 306.176C267.147 305.891 266.953 305.636 266.715 305.426C266.477 305.217 266.2 305.056 265.9 304.955L265.907 304.952Z" fill="#E98862"/>
<path opacity="0.2" d="M258.087 307.614C258.059 307.613 258.031 307.608 258.005 307.599L252.203 305.489C252.144 305.468 252.095 305.423 252.068 305.365C252.042 305.308 252.039 305.242 252.061 305.182C252.083 305.123 252.127 305.074 252.185 305.048C252.243 305.021 252.308 305.018 252.368 305.04L258.17 307.15C258.223 307.169 258.268 307.206 258.296 307.255C258.324 307.304 258.334 307.361 258.324 307.416C258.314 307.472 258.285 307.522 258.242 307.558C258.199 307.594 258.145 307.614 258.088 307.614H258.087Z" fill="#0A0A0A"/>
<path opacity="0.2" d="M255.153 311.831C255.126 311.831 255.099 311.827 255.073 311.818L250.5 310.195C250.47 310.185 250.442 310.169 250.418 310.148C250.393 310.127 250.374 310.102 250.36 310.073C250.346 310.045 250.338 310.014 250.336 309.982C250.334 309.95 250.338 309.918 250.349 309.888C250.36 309.858 250.376 309.831 250.398 309.807C250.419 309.784 250.445 309.765 250.474 309.751C250.503 309.738 250.534 309.73 250.566 309.729C250.598 309.728 250.629 309.733 250.659 309.745L255.233 311.367C255.286 311.386 255.33 311.423 255.359 311.472C255.387 311.52 255.398 311.577 255.388 311.633C255.379 311.688 255.35 311.739 255.307 311.775C255.264 311.811 255.209 311.831 255.153 311.831Z" fill="#0A0A0A"/>
<path opacity="0.2" d="M250.846 316.113C250.817 316.112 250.788 316.107 250.761 316.097L248.619 315.28C248.56 315.257 248.512 315.212 248.486 315.154C248.46 315.096 248.458 315.03 248.481 314.971C248.504 314.912 248.549 314.864 248.607 314.838C248.665 314.812 248.731 314.811 248.79 314.833L250.932 315.65C250.984 315.67 251.028 315.707 251.056 315.756C251.083 315.805 251.093 315.862 251.083 315.917C251.073 315.972 251.043 316.022 251 316.057C250.957 316.093 250.903 316.113 250.847 316.113H250.846Z" fill="#0A0A0A"/>
<path d="M238.957 292.55L178.533 292.509L155.674 236.748L121.574 251.085L150.093 317.265L150.371 317.924C151.767 321.141 154.117 323.851 157.104 325.688C160.091 327.524 163.57 328.398 167.07 328.191L239.869 323.891L238.957 292.55Z" fill="#367CFF"/>
<path d="M166.07 328.495C162.682 328.489 159.37 327.496 156.538 325.638C153.705 323.78 151.475 321.138 150.121 318.033L149.842 317.374L125.539 260.985L126.043 260.765L150.624 317.817C152.004 320.977 154.318 323.639 157.255 325.444C160.192 327.25 163.612 328.113 167.054 327.917L239.587 323.632L238.688 292.826L178.348 292.785L160.77 249.91L161.278 249.702L178.715 292.236L239.221 292.277L240.151 324.149L239.885 324.165L167.088 328.465C166.748 328.485 166.407 328.495 166.07 328.495Z" fill="#0C0C0C"/>
<path d="M98.8617 332.913L75.6883 562.165L76.7814 562.276L99.9547 333.024L98.8617 332.913Z" fill="#494949"/>
<path d="M194.605 332.913L171.432 562.165L172.525 562.275L195.698 333.023L194.605 332.913Z" fill="#494949"/>
<path d="M394.243 332.91L393.15 333.02L416.307 562.273L417.4 562.163L394.243 332.91Z" fill="#494949"/>
<path d="M415.125 328.465H79.4961C77.0103 328.465 74.9951 330.48 74.9951 332.966C74.9951 335.451 77.0103 337.466 79.4961 337.466H415.125C417.611 337.466 419.626 335.451 419.626 332.966C419.626 330.48 417.611 328.465 415.125 328.465Z" fill="#292A2E"/>
<path opacity="0.8" d="M415.125 328.465H79.4961C77.0103 328.465 74.9951 330.48 74.9951 332.966C74.9951 335.451 77.0103 337.466 79.4961 337.466H415.125C417.611 337.466 419.626 335.451 419.626 332.966C419.626 330.48 417.611 328.465 415.125 328.465Z" fill="white"/>
<path d="M415.126 338.016H79.4984C78.8308 338.023 78.1684 337.897 77.5496 337.647C76.9308 337.396 76.3678 337.025 75.8933 336.556C75.4187 336.086 75.042 335.527 74.7849 334.911C74.5278 334.295 74.3954 333.634 74.3954 332.966C74.3954 332.298 74.5278 331.637 74.7849 331.021C75.042 330.405 75.4187 329.846 75.8933 329.376C76.3678 328.907 76.9308 328.536 77.5496 328.285C78.1684 328.034 78.8308 327.909 79.4984 327.916H415.126C415.793 327.909 416.456 328.034 417.074 328.285C417.693 328.536 418.256 328.907 418.731 329.376C419.205 329.846 419.582 330.405 419.839 331.021C420.096 331.637 420.229 332.298 420.229 332.966C420.229 333.634 420.096 334.295 419.839 334.911C419.582 335.527 419.205 336.086 418.731 336.556C418.256 337.025 417.693 337.396 417.074 337.647C416.456 337.897 415.793 338.023 415.126 338.016ZM79.4984 329.014C78.9756 329.008 78.4567 329.106 77.9719 329.302C77.4871 329.498 77.0459 329.788 76.674 330.155C76.3021 330.523 76.0069 330.96 75.8054 331.443C75.6038 331.925 75.5001 332.443 75.5001 332.966C75.5001 333.489 75.6038 334.006 75.8054 334.489C76.0069 334.971 76.3021 335.409 76.674 335.777C77.0459 336.144 77.4871 336.434 77.9719 336.63C78.4567 336.826 78.9756 336.923 79.4984 336.917H415.126C415.648 336.923 416.167 336.826 416.652 336.63C417.137 336.434 417.578 336.144 417.95 335.777C418.322 335.409 418.617 334.971 418.819 334.489C419.02 334.006 419.124 333.489 419.124 332.966C419.124 332.443 419.02 331.925 418.819 331.443C418.617 330.96 418.322 330.523 417.95 330.155C417.578 329.788 417.137 329.498 416.652 329.302C416.167 329.106 415.648 329.008 415.126 329.014H79.4984Z" fill="#292A2E"/>
<path d="M415.125 328.465H178.9C176.414 328.465 174.399 330.48 174.399 332.966C174.399 335.451 176.414 337.466 178.9 337.466H415.125C417.611 337.466 419.626 335.451 419.626 332.966C419.626 330.48 417.611 328.465 415.125 328.465Z" fill="white"/>
<path d="M415.126 338.016H178.9C177.569 338.002 176.298 337.464 175.362 336.518C174.427 335.573 173.902 334.296 173.902 332.966C173.902 331.636 174.427 330.359 175.362 329.413C176.298 328.468 177.569 327.93 178.9 327.916H415.126C415.793 327.909 416.456 328.034 417.074 328.285C417.693 328.536 418.256 328.907 418.731 329.376C419.205 329.846 419.582 330.405 419.839 331.021C420.096 331.637 420.229 332.298 420.229 332.966C420.229 333.634 420.096 334.295 419.839 334.911C419.582 335.527 419.205 336.086 418.731 336.556C418.256 337.025 417.693 337.396 417.074 337.647C416.456 337.897 415.793 338.023 415.126 338.016ZM178.9 329.014C177.86 329.027 176.866 329.448 176.135 330.188C175.404 330.928 174.994 331.926 174.994 332.966C174.994 334.006 175.404 335.004 176.135 335.744C176.866 336.483 177.86 336.905 178.9 336.917H415.126C415.648 336.923 416.167 336.826 416.652 336.63C417.137 336.434 417.578 336.144 417.95 335.777C418.322 335.409 418.617 334.971 418.819 334.489C419.02 334.006 419.124 333.489 419.124 332.966C419.124 332.443 419.02 331.925 418.819 331.443C418.617 330.96 418.322 330.523 417.95 330.155C417.578 329.788 417.137 329.498 416.652 329.302C416.167 329.106 415.648 329.008 415.126 329.014H178.9Z" fill="#292A2E"/>
<path d="M424.178 489.19C424.106 489.19 424.035 489.176 423.968 489.148C423.901 489.121 423.841 489.08 423.79 489.029C423.016 488.255 421.754 474.056 418.356 431.778C416.966 414.479 415.653 398.14 414.694 388.21C414.626 387.501 414.351 387.418 414.261 387.391C412.948 386.995 408.959 390.141 406.731 392.897C406.64 393.01 406.507 393.082 406.362 393.098C406.217 393.113 406.072 393.07 405.958 392.978C405.845 392.887 405.773 392.754 405.757 392.609C405.742 392.464 405.785 392.319 405.877 392.206C407.35 390.384 412.151 385.609 414.576 386.339C415.065 386.486 415.675 386.911 415.788 388.104C416.747 398.043 418.061 414.387 419.452 431.69C421.516 457.382 423.855 486.487 424.624 488.32C424.683 488.402 424.718 488.499 424.726 488.6C424.733 488.7 424.713 488.801 424.667 488.891C424.621 488.981 424.551 489.056 424.465 489.109C424.378 489.162 424.279 489.19 424.178 489.19Z" fill="#494949"/>
<path d="M413.283 406.431C422.398 399.125 425.419 387.752 420.031 381.03C414.642 374.308 402.885 374.782 393.77 382.088C384.655 389.395 381.633 400.767 387.022 407.489C392.41 414.212 404.168 413.738 413.283 406.431Z" fill="#0CBC8B"/>
<path opacity="0.2" d="M413.283 406.431C422.398 399.125 425.419 387.752 420.031 381.03C414.642 374.308 402.885 374.782 393.77 382.088C384.655 389.395 381.633 400.767 387.022 407.489C392.41 414.212 404.168 413.738 413.283 406.431Z" fill="white"/>
<path d="M389.577 409.199C389.525 409.199 389.474 409.184 389.43 409.156C389.386 409.128 389.351 409.088 389.329 409.041C389.307 408.994 389.298 408.941 389.305 408.89C389.312 408.838 389.333 408.789 389.366 408.749L415.343 377.423C415.39 377.366 415.457 377.331 415.529 377.324C415.602 377.318 415.674 377.34 415.73 377.387C415.786 377.433 415.822 377.5 415.828 377.573C415.835 377.645 415.813 377.717 415.766 377.774L389.789 409.1C389.763 409.131 389.731 409.156 389.694 409.173C389.658 409.19 389.618 409.199 389.577 409.199Z" fill="white"/>
<path d="M429.844 482.475C429.756 482.475 429.67 482.454 429.592 482.414C429.514 482.373 429.447 482.315 429.396 482.244C429.346 482.172 429.313 482.09 429.3 482.003C429.288 481.916 429.297 481.828 429.325 481.745L439.084 453.683C439.371 452.858 439.861 452.119 440.508 451.533C441.155 450.947 441.939 450.532 442.787 450.327C443.636 450.122 444.522 450.134 445.366 450.36C446.209 450.587 446.982 451.021 447.613 451.624L452.773 456.552C452.878 456.653 452.939 456.791 452.942 456.937C452.946 457.082 452.891 457.223 452.79 457.329C452.69 457.434 452.551 457.495 452.406 457.499C452.26 457.502 452.119 457.447 452.013 457.347L446.855 452.418C446.356 451.943 445.746 451.6 445.08 451.421C444.415 451.242 443.715 451.233 443.045 451.395C442.375 451.556 441.756 451.884 441.245 452.346C440.734 452.809 440.348 453.393 440.121 454.044L430.364 482.106C430.326 482.214 430.256 482.307 430.163 482.374C430.07 482.44 429.958 482.475 429.844 482.475Z" fill="#494949"/>
<path d="M467.185 472.088C473.94 466.741 473.538 454.981 466.288 445.821C459.037 436.662 447.684 433.571 440.929 438.918C434.173 444.265 434.575 456.025 441.825 465.184C449.076 474.344 460.429 477.435 467.185 472.088Z" fill="#0CBC8B"/>
<path d="M419.748 487.4C419.625 487.4 419.505 487.358 419.408 487.282C419.311 487.205 419.243 487.099 419.214 486.979L402.836 418.51C402.724 418.043 402.486 417.617 402.147 417.277C401.808 416.937 401.382 416.697 400.916 416.584C400.45 416.47 399.961 416.487 399.504 416.633C399.047 416.779 398.639 417.049 398.325 417.411L393.277 423.245C393.23 423.3 393.173 423.346 393.108 423.379C393.043 423.412 392.973 423.432 392.9 423.437C392.828 423.443 392.755 423.434 392.686 423.411C392.617 423.389 392.554 423.352 392.499 423.305C392.444 423.257 392.399 423.199 392.367 423.134C392.334 423.069 392.315 422.999 392.31 422.926C392.305 422.854 392.315 422.781 392.338 422.713C392.362 422.644 392.398 422.58 392.446 422.526L397.494 416.693C397.94 416.177 398.52 415.794 399.17 415.587C399.82 415.379 400.515 415.355 401.177 415.517C401.84 415.679 402.445 416.02 402.927 416.503C403.408 416.987 403.746 417.594 403.905 418.257L420.28 486.725C420.313 486.867 420.289 487.015 420.213 487.139C420.136 487.262 420.014 487.351 419.873 487.384C419.832 487.394 419.79 487.4 419.748 487.4Z" fill="#494949"/>
<path d="M413.706 438.456C415.696 426.945 410.428 416.423 401.939 414.955C393.45 413.487 384.954 421.628 382.963 433.14C380.973 444.651 386.241 455.172 394.73 456.641C403.219 458.109 411.715 449.967 413.706 438.456Z" fill="#0CBC8B"/>
<path d="M424.179 489.19C424.156 489.19 424.134 489.189 424.111 489.186C424.04 489.178 423.97 489.155 423.908 489.119C423.845 489.084 423.79 489.036 423.745 488.979C423.701 488.922 423.668 488.857 423.649 488.788C423.629 488.718 423.624 488.645 423.633 488.574L434.09 403.674C434.203 402.75 434.582 401.877 435.18 401.162C435.778 400.448 436.569 399.921 437.459 399.645C438.349 399.369 439.3 399.356 440.197 399.608C441.095 399.86 441.9 400.365 442.517 401.064L454.469 414.6C454.565 414.709 454.614 414.852 454.605 414.998C454.596 415.143 454.53 415.279 454.421 415.376C454.311 415.472 454.168 415.521 454.023 415.512C453.877 415.503 453.741 415.437 453.645 415.327L441.693 401.791C441.216 401.251 440.594 400.86 439.9 400.666C439.207 400.471 438.472 400.481 437.784 400.694C437.096 400.907 436.484 401.314 436.022 401.867C435.56 402.419 435.268 403.094 435.18 403.808L424.724 488.708C424.707 488.841 424.643 488.963 424.543 489.052C424.442 489.141 424.313 489.19 424.179 489.19Z" fill="#494949"/>
<path d="M466.727 422.122C470.897 414.584 465.991 403.888 455.769 398.234C445.546 392.579 433.879 394.107 429.709 401.646C425.539 409.185 430.445 419.88 440.668 425.534C450.89 431.189 462.557 429.661 466.727 422.122Z" fill="#0CBC8B"/>
<path opacity="0.2" d="M467.185 472.088C473.94 466.741 473.538 454.981 466.288 445.821C459.037 436.662 447.684 433.571 440.929 438.918C434.173 444.265 434.575 456.025 441.825 465.184C449.076 474.344 460.429 477.435 467.185 472.088Z" fill="white"/>
<path opacity="0.5" d="M413.706 438.456C415.696 426.945 410.428 416.423 401.939 414.955C393.45 413.487 384.954 421.628 382.963 433.14C380.973 444.651 386.241 455.172 394.73 456.641C403.219 458.109 411.715 449.967 413.706 438.456Z" fill="white"/>
<path opacity="0.5" d="M466.727 422.122C470.897 414.584 465.991 403.888 455.769 398.234C445.546 392.579 433.879 394.107 429.709 401.646C425.539 409.185 430.445 419.88 440.668 425.534C450.89 431.189 462.557 429.661 466.727 422.122Z" fill="white"/>
<path d="M437.553 561.227H410.804L406.371 475.643H441.985L437.553 561.227Z" fill="#292A2E"/>
<path opacity="0.3" d="M437.553 561.227H410.804L406.371 475.643H441.985L437.553 561.227Z" fill="white"/>
<path d="M467.185 472.359C467.144 472.359 467.103 472.349 467.066 472.331C467.028 472.313 466.996 472.287 466.97 472.254L440.713 439.084C440.668 439.027 440.647 438.954 440.655 438.882C440.664 438.809 440.701 438.743 440.758 438.698C440.815 438.653 440.888 438.632 440.96 438.641C441.032 438.649 441.098 438.686 441.144 438.743L467.401 471.913C467.433 471.954 467.453 472.003 467.459 472.054C467.464 472.105 467.455 472.157 467.433 472.204C467.41 472.25 467.375 472.289 467.331 472.317C467.288 472.344 467.237 472.359 467.185 472.359Z" fill="white"/>
<path d="M464.981 424.78C464.922 424.78 464.866 424.76 464.819 424.725L431.22 400.192C431.161 400.149 431.122 400.084 431.11 400.012C431.099 399.94 431.117 399.867 431.16 399.808C431.203 399.749 431.268 399.71 431.34 399.699C431.412 399.687 431.485 399.705 431.544 399.748L465.143 424.282C465.189 424.317 465.223 424.365 465.24 424.42C465.258 424.475 465.257 424.534 465.239 424.589C465.221 424.643 465.186 424.691 465.139 424.724C465.092 424.758 465.036 424.776 464.978 424.776L464.981 424.78Z" fill="white"/>
<path d="M393.365 456.282C393.341 456.282 393.317 456.279 393.294 456.272C393.224 456.254 393.164 456.208 393.127 456.145C393.091 456.082 393.081 456.007 393.1 455.937L403.795 415.863C403.816 415.795 403.862 415.737 403.924 415.702C403.986 415.667 404.06 415.657 404.129 415.676C404.198 415.694 404.257 415.739 404.294 415.8C404.331 415.861 404.342 415.935 404.326 416.004L393.63 456.078C393.615 456.137 393.58 456.188 393.532 456.225C393.484 456.262 393.425 456.282 393.365 456.282Z" fill="white"/>
<path d="M450.467 561.998H65.719C65.6171 561.998 65.5193 561.958 65.4472 561.885C65.375 561.813 65.3345 561.716 65.3345 561.614C65.3345 561.512 65.375 561.414 65.4472 561.342C65.5193 561.27 65.6171 561.229 65.719 561.229H450.466C450.568 561.229 450.665 561.27 450.737 561.342C450.81 561.414 450.85 561.512 450.85 561.614C450.85 561.716 450.81 561.813 450.737 561.885C450.665 561.958 450.568 561.998 450.466 561.998H450.467Z" fill="#292A2E"/>
<g opacity="0.65">
<path d="M450.467 561.998H65.719C65.6171 561.998 65.5193 561.958 65.4472 561.885C65.375 561.813 65.3345 561.716 65.3345 561.614C65.3345 561.512 65.375 561.414 65.4472 561.342C65.5193 561.27 65.6171 561.229 65.719 561.229H450.466C450.568 561.229 450.665 561.27 450.737 561.342C450.81 561.414 450.85 561.512 450.85 561.614C450.85 561.716 450.81 561.813 450.737 561.885C450.665 561.958 450.568 561.998 450.466 561.998H450.467Z" fill="#292A2E"/>
</g>
</g>
<defs>
<clipPath id="clip0_17_61">
<rect width="406.665" height="462.786" fill="white" transform="translate(65.3345 99.4883)"/>
</clipPath>
</defs>
</svg>
