<svg width="25" height="30" viewBox="0 0 25 30" fill="none" xmlns="http://www.w3.org/2000/svg">
<path d="M12.0641 13.4624C12.8595 13.4624 13.6369 13.1753 14.2983 12.6373C14.9596 12.0994 15.475 11.3348 15.7794 10.4402C16.0837 9.54568 16.1634 8.56134 16.0082 7.61168C15.853 6.66202 15.47 5.7897 14.9076 5.10504C14.3452 4.42037 13.6287 3.95411 12.8486 3.76521C12.0686 3.57631 11.26 3.67326 10.5252 4.0438C9.79038 4.41434 9.16232 5.04182 8.72045 5.8469C8.27857 6.65199 8.04272 7.5985 8.04272 8.56677C8.04272 9.86517 8.4664 11.1104 9.22056 12.0285C9.97471 12.9466 10.9976 13.4624 12.0641 13.4624ZM12.0641 6.11896C12.4618 6.11896 12.8505 6.26252 13.1812 6.53149C13.5118 6.80046 13.7696 7.18275 13.9217 7.63003C14.0739 8.07731 14.1137 8.56948 14.0362 9.04431C13.9586 9.51914 13.7671 9.9553 13.4859 10.2976C13.2047 10.64 12.8464 10.8731 12.4564 10.9675C12.0663 11.062 11.6621 11.0135 11.2946 10.8282C10.9272 10.643 10.6132 10.3292 10.3923 9.9267C10.1713 9.52416 10.0534 9.0509 10.0534 8.56677C10.0534 7.91757 10.2653 7.29496 10.6423 6.8359C11.0194 6.37685 11.5308 6.11896 12.0641 6.11896Z" fill="#7B2C2D"/>
<path d="M12.064 15.9104C10.1976 15.9104 8.40759 16.813 7.08782 18.4197C5.76805 20.0264 5.02661 22.2055 5.02661 24.4777C5.02661 24.8023 5.13253 25.1136 5.32107 25.3432C5.50961 25.5727 5.76532 25.7016 6.03196 25.7016C6.29859 25.7016 6.5543 25.5727 6.74284 25.3432C6.93138 25.1136 7.0373 24.8023 7.0373 24.4777C7.0373 22.8547 7.5669 21.2982 8.50959 20.1506C9.45229 19.0029 10.7309 18.3582 12.064 18.3582C13.3972 18.3582 14.6758 19.0029 15.6185 20.1506C16.5611 21.2982 17.0907 22.8547 17.0907 24.4777C17.0907 24.8023 17.1967 25.1136 17.3852 25.3432C17.5737 25.5727 17.8295 25.7016 18.0961 25.7016C18.3627 25.7016 18.6184 25.5727 18.807 25.3432C18.9955 25.1136 19.1014 24.8023 19.1014 24.4777C19.1014 22.2055 18.36 20.0264 17.0402 18.4197C15.7205 16.813 13.9305 15.9104 12.064 15.9104Z" fill="#7B2C2D"/>
</svg>
