<svg width="22" height="27" viewBox="0 0 22 27" fill="none" xmlns="http://www.w3.org/2000/svg">
<path d="M8.20316 12.2537C8.92422 12.2537 9.6291 11.9934 10.2286 11.5057C10.8282 11.018 11.2955 10.3248 11.5714 9.51382C11.8474 8.70281 11.9196 7.8104 11.7789 6.94944C11.6382 6.08848 11.291 5.29764 10.7811 4.67692C10.2712 4.05621 9.62162 3.63349 8.91441 3.46224C8.2072 3.29098 7.47415 3.37888 6.80798 3.71481C6.1418 4.05074 5.5724 4.61961 5.1718 5.3495C4.77119 6.07939 4.55737 6.9375 4.55737 7.81533C4.55737 8.99246 4.94148 10.1214 5.6252 10.9537C6.30891 11.7861 7.23623 12.2537 8.20316 12.2537ZM8.20316 5.59614C8.56369 5.59614 8.91613 5.72629 9.2159 5.97014C9.51567 6.21399 9.74932 6.56058 9.88729 6.96608C10.0253 7.37159 10.0614 7.81779 9.99102 8.24827C9.92068 8.67875 9.74707 9.07417 9.49213 9.38453C9.2372 9.69489 8.91239 9.90625 8.55878 9.99187C8.20518 10.0775 7.83866 10.0336 7.50557 9.86559C7.17248 9.69762 6.88778 9.41319 6.68748 9.04824C6.48718 8.6833 6.38026 8.25424 6.38026 7.81533C6.38026 7.22676 6.57232 6.6623 6.91418 6.24613C7.25604 5.82995 7.71969 5.59614 8.20316 5.59614Z" fill="#7B2C2D"/>
<path d="M15.4946 14.4727C16.0354 14.4727 16.564 14.2775 17.0137 13.9117C17.4634 13.546 17.8138 13.0261 18.0208 12.4178C18.2277 11.8096 18.2819 11.1403 18.1764 10.4946C18.0709 9.84883 17.8105 9.2557 17.4281 8.79016C17.0457 8.32463 16.5584 8.00759 16.028 7.87915C15.4976 7.75071 14.9478 7.81663 14.4482 8.06858C13.9486 8.32052 13.5215 8.74718 13.2211 9.2946C12.9206 9.84201 12.7603 10.4856 12.7603 11.144C12.7603 12.0268 13.0483 12.8735 13.5611 13.4978C14.0739 14.122 14.7694 14.4727 15.4946 14.4727ZM15.4946 10.0344C15.6749 10.0344 15.8511 10.0995 16.001 10.2214C16.1508 10.3433 16.2677 10.5166 16.3367 10.7193C16.4056 10.9221 16.4237 11.1452 16.3885 11.3604C16.3534 11.5757 16.2665 11.7734 16.1391 11.9286C16.0116 12.0837 15.8492 12.1894 15.6724 12.2322C15.4956 12.2751 15.3123 12.2531 15.1458 12.1691C14.9793 12.0851 14.8369 11.9429 14.7368 11.7604C14.6366 11.578 14.5831 11.3634 14.5831 11.144C14.5831 10.8497 14.6792 10.5675 14.8501 10.3594C15.021 10.1513 15.2529 10.0344 15.4946 10.0344Z" fill="#7B2C2D"/>
<path d="M15.4947 15.5825C14.4846 15.5839 13.5036 15.9937 12.7057 16.7476C11.8129 15.665 10.6768 14.9285 9.4407 14.6309C8.20457 14.3334 6.92374 14.4881 5.75974 15.0756C4.59574 15.663 3.60069 16.6569 2.90009 17.932C2.19949 19.207 1.8247 20.706 1.823 22.24C1.823 22.5343 1.91903 22.8166 2.08995 23.0246C2.26088 23.2327 2.49271 23.3496 2.73444 23.3496C2.97617 23.3496 3.208 23.2327 3.37893 23.0246C3.54986 22.8166 3.64589 22.5343 3.64589 22.24C3.64589 20.7686 4.12602 19.3575 4.98067 18.317C5.83532 17.2766 6.99446 16.6921 8.20312 16.6921C9.41177 16.6921 10.5709 17.2766 11.4256 18.317C12.2802 19.3575 12.7603 20.7686 12.7603 22.24C12.7603 22.5343 12.8564 22.8166 13.0273 23.0246C13.1982 23.2327 13.4301 23.3496 13.6718 23.3496C13.9135 23.3496 14.1453 23.2327 14.3163 23.0246C14.4872 22.8166 14.5832 22.5343 14.5832 22.24C14.5854 20.9401 14.3157 19.6608 13.7994 18.5229C14.2022 18.1354 14.6864 17.8938 15.1968 17.8257C15.7071 17.7576 16.2228 17.8658 16.685 18.1379C17.1472 18.4099 17.5371 18.8349 17.8101 19.3641C18.0832 19.8934 18.2284 20.5055 18.229 21.1305C18.229 21.4247 18.325 21.707 18.496 21.9151C18.6669 22.1231 18.8987 22.24 19.1405 22.24C19.3822 22.24 19.614 22.1231 19.785 21.9151C19.9559 21.707 20.0519 21.4247 20.0519 21.1305C20.0519 19.659 19.5718 18.2479 18.7171 17.2074C17.8625 16.167 16.7033 15.5825 15.4947 15.5825Z" fill="#7B2C2D"/>
</svg>
